<svg width="103" height="34" viewBox="0 0 103 34" fill="none" xmlns="http://www.w3.org/2000/svg">
<path d="M44.0343 17.8842C44.0343 22.7736 40.2221 26.3764 35.5435 26.3764C30.865 26.3764 27.0527 22.7736 27.0527 17.8842C27.0527 12.9604 30.865 9.39203 35.5435 9.39203C40.2221 9.39203 44.0343 12.9604 44.0343 17.8842ZM40.3175 17.8842C40.3175 14.8289 38.108 12.7384 35.5435 12.7384C32.9791 12.7384 30.7696 14.8289 30.7696 17.8842C30.7696 20.909 32.9791 23.0301 35.5435 23.0301C38.108 23.0301 40.3175 20.9051 40.3175 17.8842Z" fill="#EA4335"/>
<path d="M62.3508 17.8842C62.3508 22.7736 58.5385 26.3764 53.8599 26.3764C49.1814 26.3764 45.3691 22.7736 45.3691 17.8842C45.3691 12.9643 49.1814 9.39203 53.8599 9.39203C58.5385 9.39203 62.3508 12.9604 62.3508 17.8842ZM58.6339 17.8842C58.6339 14.8289 56.4244 12.7384 53.8599 12.7384C51.2955 12.7384 49.086 14.8289 49.086 17.8842C49.086 20.909 51.2955 23.0301 53.8599 23.0301C56.4244 23.0301 58.6339 20.9051 58.6339 17.8842Z" fill="#FBBC05"/>
<path d="M79.9047 9.90508V25.1512C79.9047 31.4228 76.2184 33.9842 71.8604 33.9842C67.7581 33.9842 65.2891 31.2313 64.358 28.98L67.594 27.6284C68.1703 29.0106 69.5822 30.6417 71.8566 30.6417C74.6462 30.6417 76.3749 28.9149 76.3749 25.6643V24.4429H76.2451C75.4132 25.4728 73.8104 26.3726 71.7879 26.3726C67.5559 26.3726 63.6787 22.674 63.6787 17.9149C63.6787 13.1212 67.5559 9.39203 71.7879 9.39203C73.8066 9.39203 75.4094 10.2918 76.2451 11.2911H76.3749V9.90891H79.9047V9.90508ZM76.6382 17.9149C76.6382 14.9246 74.65 12.7384 72.1199 12.7384C69.5555 12.7384 67.407 14.9246 67.407 17.9149C67.407 20.8745 69.5555 23.0301 72.1199 23.0301C74.65 23.0301 76.6382 20.8745 76.6382 17.9149Z" fill="#4285F4"/>
<path d="M85.7249 0.968689V25.8557H82.0996V0.968689H85.7249Z" fill="#34A853"/>
<path d="M99.8516 20.6792L102.737 22.6089C101.805 23.991 99.5615 26.3725 95.6844 26.3725C90.8761 26.3725 87.2852 22.6433 87.2852 17.8803C87.2852 12.8302 90.9066 9.38812 95.2684 9.38812C99.6607 9.38812 101.809 12.8953 102.511 14.7905L102.897 15.7554L91.5821 20.4571C92.4483 22.1609 93.7954 23.03 95.6844 23.03C97.5772 23.03 98.8899 22.0958 99.8516 20.6792ZM90.9715 17.6238L98.535 14.4727C98.119 13.4122 96.8674 12.6732 95.3944 12.6732C93.5054 12.6732 90.8761 14.3464 90.9715 17.6238Z" fill="#EA4335"/>
<path d="M13.3296 15.675V12.0721H25.4304C25.5487 12.7 25.6098 13.4428 25.6098 14.2468C25.6098 16.95 24.8733 20.2925 22.4997 22.674C20.1909 25.0861 17.2411 26.3725 13.3334 26.3725C6.09048 26.3725 0 20.4533 0 13.1863C0 5.91927 6.09048 0 13.3334 0C17.3403 0 20.1948 1.57745 22.3394 3.6335L19.8055 6.1758C18.2676 4.72853 16.184 3.60287 13.3296 3.60287C8.04051 3.60287 3.90386 7.8796 3.90386 13.1863C3.90386 18.4929 8.04051 22.7697 13.3296 22.7697C16.7603 22.7697 18.7141 21.3875 19.9658 20.1317C20.9809 19.1132 21.6487 17.6583 21.912 15.6711L13.3296 15.675Z" fill="#4285F4"/>
</svg>
