<svg width="103" height="40" viewBox="0 0 103 40" fill="none" xmlns="http://www.w3.org/2000/svg">
<path d="M20.0527 25.0766H4.71264L4.15709 26.9109H8.24713L9.02299 29.4397H15.7423L16.523 26.9109H20.6082L20.0527 25.0766ZM7.21743 14.7797C6.04229 16.3999 6.40245 18.6659 8.02203 19.842L11.6954 22.5096C12.1032 22.8034 12.1935 23.3732 11.8966 23.7787L12.4473 24.1762L14.387 21.5038C14.8373 20.888 15.0805 20.1451 15.0814 19.3822C15.0797 19.1881 15.0637 18.9944 15.0335 18.8027C14.8869 17.8549 14.3701 17.004 13.5967 16.4368L9.92816 13.7739C9.72402 13.6373 9.58538 13.4224 9.54502 13.1801C9.54023 13.1322 9.54023 13.0843 9.54502 13.0364C9.54627 12.8457 9.60649 12.66 9.71743 12.5048L9.16667 12.1025L7.21743 14.7797ZM9.43008 4.0613C8.7795 4.95448 8.42904 6.03102 8.42912 7.13601C8.42768 7.41667 8.45019 7.69732 8.49617 7.97414C8.71031 9.35232 9.46752 10.5873 10.5987 11.4033L15.2155 14.7557C15.8203 15.1926 16.2255 15.853 16.341 16.59C16.3656 16.7389 16.3784 16.8894 16.3793 17.0402C16.377 17.6298 16.1875 18.2033 15.8381 18.6782L16.2835 18.999L19.9186 13.9751C21.6159 11.6221 21.091 8.34004 18.7452 6.63314L13.1753 2.58621C12.827 2.33396 12.5942 1.95281 12.5287 1.52778C12.4577 1.10318 12.5613 0.667908 12.8161 0.320881L12.3755 0L9.43008 4.0613ZM0.00478931 30.9722H4.20977C5.07322 30.9149 5.92412 31.2026 6.57567 31.772C6.9848 32.1774 7.20837 32.7337 7.19349 33.3094V33.3381C7.21667 34.1653 6.75146 34.9287 6.00575 35.2874C7.04981 35.6897 7.69636 36.2979 7.69636 37.5144C7.69636 39.1715 6.35536 40 4.31035 40H0L0.00478931 30.9722ZM3.79789 34.6312C4.67433 34.6312 5.23467 34.3439 5.23467 33.6734C5.23467 33.0747 4.75575 32.7155 3.9272 32.7155H1.94444V34.6312H3.79789ZM4.32471 38.2759C5.20594 38.2759 5.73276 37.9646 5.73276 37.318V37.2893C5.73276 36.6858 5.28257 36.3314 4.26245 36.3314H1.94444V38.3238L4.32471 38.2759ZM8.58717 30.9722H12.7921C13.6556 30.9149 14.5065 31.2026 15.158 31.772C15.5654 32.1782 15.7872 32.7344 15.7711 33.3094V33.3381C15.7943 34.1653 15.329 34.9287 14.5833 35.2874C15.6322 35.6897 16.2787 36.2979 16.2787 37.5144C16.2787 39.1715 14.933 40 12.8879 40H8.58717V30.9722ZM12.3659 34.6312C13.2423 34.6312 13.8027 34.3439 13.8027 33.6734C13.8027 33.0747 13.3238 32.7155 12.5 32.7155H10.5029V34.6312H12.3659ZM12.8927 38.2759C13.7739 38.2759 14.3008 37.9646 14.3008 37.318V37.2893C14.3008 36.6858 13.8506 36.3314 12.8305 36.3314H10.5029V38.3238L12.8927 38.2759ZM17.1216 30.9722H21.3266C22.1901 30.9149 23.041 31.2026 23.6925 31.772C24.1017 32.1774 24.3252 32.7337 24.3103 33.3094V33.3381C24.3335 34.1653 23.8683 34.9287 23.1226 35.2874C24.1715 35.6897 24.818 36.2979 24.818 37.5144C24.818 39.1715 23.4722 40 21.4272 40H17.1169L17.1216 30.9722ZM20.9004 34.6312C21.7768 34.6312 22.3372 34.3439 22.3372 33.6734C22.3372 33.0747 21.8582 32.7155 21.0345 32.7155H19.0613V34.6312H20.9004ZM21.4272 38.2759C22.3084 38.2759 22.84 37.9646 22.84 37.318V37.2893C22.84 36.6858 22.3851 36.3314 21.3649 36.3314H19.0613V38.3238L21.4272 38.2759Z" fill="#005F86"/>
</svg>
