<svg width="10" height="8" viewBox="0 0 10 8" fill="none" xmlns="http://www.w3.org/2000/svg">
<path d="M9.86382 3.6712L6.88798 0.695361C6.70642 0.513798 6.41196 0.513798 6.2304 0.695361C6.0488 0.876962 6.0488 1.17135 6.2304 1.35295L8.41247 3.53502H0.464974C0.208197 3.53502 0 3.74321 0 3.99999C0 4.25673 0.208197 4.46496 0.464974 4.46496H8.41247L6.23047 6.64703C6.04887 6.82863 6.04887 7.12302 6.23047 7.30462C6.32123 7.39534 6.44027 7.4408 6.55926 7.4408C6.67826 7.4408 6.79726 7.39534 6.88806 7.30462L9.86382 4.32878C10.0454 4.14718 10.0454 3.8528 9.86382 3.6712Z" fill="currentColor"/>
</svg>
