<svg width="14" height="14" viewBox="0 0 14 14" fill="none" xmlns="http://www.w3.org/2000/svg">
<path fill-rule="evenodd" clip-rule="evenodd" d="M7.77778 0.777778C7.77778 0.348227 7.42957 0 7 0C6.57043 0 6.22222 0.348227 6.22222 0.777778V6.22222H0.777778C0.348227 6.22222 0 6.57043 0 7C0 7.42957 0.348227 7.77778 0.777778 7.77778H6.22222V13.2222C6.22222 13.6518 6.57043 14 7 14C7.42957 14 7.77778 13.6518 7.77778 13.2222V7.77778H13.2222C13.6518 7.77778 14 7.42957 14 7C14 6.57043 13.6518 6.22222 13.2222 6.22222H7.77778V0.777778Z" fill="currentColor"/>
</svg>
