<svg width="24" height="24" viewBox="0 0 24 24" fill="none" xmlns="http://www.w3.org/2000/svg">
<path d="M1.58887 20.0043V3.99696C1.58887 2.67701 1.58887 2.0163 1.86663 1.62576C2.10906 1.2849 2.48273 1.06111 2.89757 1.0076C3.37271 0.946323 3.95546 1.25712 5.11929 1.87783L20.1261 9.88148L20.1316 9.8839C21.4178 10.5699 22.0612 10.913 22.2722 11.3703C22.4563 11.7693 22.4563 12.2299 22.2722 12.6288C22.0609 13.0868 21.4159 13.4314 20.1261 14.1193L5.11929 22.1229C3.95462 22.7441 3.37288 23.0537 2.89757 22.9924C2.48273 22.9389 2.10906 22.7151 1.86663 22.3743C1.58887 21.9837 1.58887 21.3242 1.58887 20.0043Z" stroke="currentColor" stroke-width="2" stroke-linecap="round" stroke-linejoin="round"/>
</svg>
