<svg width="18" height="18" viewBox="0 0 18 18" fill="none" xmlns="http://www.w3.org/2000/svg">
<path d="M9 13.3275L4.365 15.765L5.25 10.605L1.5 6.9525L6.6825 6.195L9 1.5V13.3275Z" fill="#FFB800"/>
<path d="M10.8691 6.41602C10.9419 6.56341 11.0825 6.66565 11.2451 6.68945L15.4258 7.30078L12.4014 10.2471C12.2835 10.3619 12.2291 10.5272 12.2568 10.6895L12.9707 14.8496L9.23242 12.8848C9.1232 12.8274 8.99802 12.8131 8.88086 12.8418L8.76758 12.8848L5.02832 14.8496L5.74316 10.6895C5.77094 10.5272 5.71654 10.3619 5.59863 10.2471L2.57324 7.30078L6.75488 6.68945C6.87697 6.67158 6.9866 6.60976 7.06445 6.51758L7.13086 6.41602L9 2.62891L10.8691 6.41602Z" stroke="#FFB800" stroke-linecap="round" stroke-linejoin="round"/>
</svg>
