<svg width="50" height="50" viewBox="0 0 50 50" fill="none" xmlns="http://www.w3.org/2000/svg">
<g clip-path="url(#clip0_4754_5874)">
<path d="M32.5 20H38.4998L39.9618 21.2268L38.4998 22.0902L5 41.875V24.375L7.5 20H32.5Z" fill="#00AAEE"/>
<circle cx="22.75" cy="12" r="11.25" fill="#00AAEE"/>
<path d="M43.6641 33.089C43.664 31.7164 42.5512 30.6039 41.1787 30.6036H40.3105V32.339H40.3691C40.7833 32.339 41.119 32.6749 41.1191 33.089C41.1191 33.5032 40.7834 33.839 40.3691 33.839H38.6924V42.046H41.1787C42.5512 42.0458 43.6639 40.9333 43.6641 39.5607V33.089ZM14.5342 43.5558C14.5283 43.5499 14.52 43.546 14.5117 43.546H9.60254C9.59438 43.5461 9.58683 43.55 9.58105 43.5558C9.5753 43.5616 9.57133 43.5691 9.57129 43.5773V45.2511C9.5714 45.2592 9.57529 45.2668 9.58105 45.2726C9.58683 45.2783 9.5944 45.2823 9.60254 45.2823H14.5117C14.52 45.2823 14.5283 45.2784 14.5342 45.2726C14.5398 45.2668 14.5429 45.2591 14.543 45.2511V43.5773C14.5429 43.5692 14.5398 43.5616 14.5342 43.5558ZM33.957 37.9425C33.9569 37.4633 33.568 37.0753 33.0889 37.0753C32.6097 37.0755 32.2218 37.4636 32.2217 37.9425C32.2217 38.4215 32.6096 38.8105 33.0889 38.8107C33.5681 38.8107 33.957 38.4217 33.957 37.9425ZM27.4766 11.1984C27.4707 11.1926 27.4623 11.1896 27.4541 11.1896H17.6924C17.6841 11.1896 17.6758 11.1926 17.6699 11.1984C17.6641 11.2042 17.6611 11.2125 17.6611 11.2208V17.7472C17.6611 17.7555 17.6641 17.7638 17.6699 17.7697C17.6758 17.7755 17.6841 17.7784 17.6924 17.7784H27.4541C27.4624 17.7784 27.4707 17.7755 27.4766 17.7697C27.4824 17.7638 27.4854 17.7555 27.4854 17.7472V11.2208C27.4854 11.2125 27.4824 11.2042 27.4766 11.1984ZM21.8232 15.2931V14.381C21.5297 14.2793 21.3174 14.0031 21.3174 13.6749C21.3175 13.261 21.6534 12.9252 22.0674 12.9249H22.877L22.9531 12.9288C23.3314 12.9671 23.6268 13.2866 23.627 13.6749C23.627 13.9209 23.5062 14.1368 23.3232 14.2736V15.2931C23.3232 15.7073 22.9874 16.0431 22.5732 16.0431C22.1591 16.0431 21.8233 15.7073 21.8232 15.2931ZM17.4961 2.77844C17.1329 2.97762 16.6767 2.84475 16.4775 2.48157C16.2787 2.11861 16.4117 1.66327 16.7744 1.46399L17.4961 2.77844ZM16.043 45.2511C16.0429 45.6569 15.8816 46.0461 15.5947 46.3331C15.3076 46.6203 14.9178 46.7823 14.5117 46.7823H9.60254C9.19657 46.7823 8.80759 46.6202 8.52051 46.3331C8.23344 46.0461 8.0714 45.6571 8.07129 45.2511V43.5773C8.07133 43.1712 8.23338 42.7814 8.52051 42.4943C8.80755 42.2074 9.19674 42.0461 9.60254 42.046H14.5117C14.9178 42.046 15.3076 42.2072 15.5947 42.4943C15.8819 42.7814 16.0429 43.1712 16.043 43.5773V45.2511ZM35.457 37.9425C35.457 39.2502 34.3965 40.3107 33.0889 40.3107C31.7814 40.3105 30.7217 39.2501 30.7217 37.9425C30.7218 36.635 31.7814 35.5755 33.0889 35.5753C34.3965 35.5753 35.4569 36.6349 35.457 37.9425ZM28.9854 39.5607C28.9855 40.9335 30.099 42.046 31.4717 42.046H37.1924V33.839H31.4717C30.0989 33.839 28.9854 34.9525 28.9854 36.3253V39.5607ZM38.8105 21.7648C38.8105 21.2854 38.4216 20.8966 37.9424 20.8966H30.7959C28.6399 22.9031 25.7507 24.132 22.5732 24.132C19.3957 24.1319 16.5065 22.9031 14.3506 20.8966H8.82129C7.42548 20.8968 6.29858 22.0474 6.33691 23.4523L6.35645 23.6993C6.51646 24.9189 7.59715 25.8682 8.88867 25.8683H37.9424C38.249 25.8683 38.5416 25.9282 38.8105 26.0343V21.7648ZM40.3105 29.1036H41.1787C43.3797 29.1039 45.164 30.888 45.1641 33.089V39.5607C45.1639 41.7617 43.3797 43.5458 41.1787 43.546H40.3105V47.6495C40.3105 48.9572 39.2501 50.0177 37.9424 50.0177H13.2354C12.8213 50.0176 12.4854 49.6818 12.4854 49.2677C12.4854 48.8536 12.8213 48.5178 13.2354 48.5177H37.9424C38.4216 48.5177 38.8105 48.1288 38.8105 47.6495V43.546H31.4717C29.2705 43.546 27.4855 41.7619 27.4854 39.5607V36.3253C27.4854 34.1241 29.2704 32.339 31.4717 32.339H38.8105V28.2355L38.8057 28.1466C38.7611 27.7091 38.3915 27.3683 37.9424 27.3683H8.88867C7.93408 27.3682 7.04026 27.0345 6.33594 26.4728V46.0323L6.34863 46.2863C6.47599 47.5394 7.53447 48.5175 8.82129 48.5177H10.3057C10.7199 48.5177 11.0557 48.8535 11.0557 49.2677C11.0556 49.6818 10.7198 50.0177 10.3057 50.0177H8.82129C6.6891 50.0175 4.94776 48.3429 4.84082 46.2374L4.83594 46.0323V23.382L4.83789 23.3556C4.852 21.1672 6.62908 19.3968 8.82129 19.3966H12.9873C11.4276 17.3624 10.4981 14.8191 10.498 12.0577C10.498 8.63219 11.9263 5.53863 14.2168 3.34192C14.5156 3.05549 14.9897 3.06495 15.2764 3.3634C15.563 3.66225 15.5535 4.13721 15.2549 4.42395C13.2471 6.34949 11.998 9.05753 11.998 12.0577C11.9982 17.8979 16.733 22.6319 22.5732 22.632C28.4134 22.632 33.1483 17.8979 33.1484 12.0577C33.1484 6.21738 28.4135 1.48254 22.5732 1.48254C20.7318 1.48256 19.0023 1.95242 17.4961 2.77844L17.1357 2.12122L16.7744 1.46399C18.4961 0.519766 20.4733 -0.0174353 22.5732 -0.0174561C29.2419 -0.0174561 34.6484 5.38896 34.6484 12.0577C34.6484 14.8191 33.7189 17.3624 32.1592 19.3966H37.9424C39.2501 19.3966 40.3105 20.457 40.3105 21.7648V29.1036ZM28.9854 17.7472C28.9854 18.1533 28.8243 18.543 28.5371 18.8302C28.25 19.1173 27.8602 19.2784 27.4541 19.2784H17.6924C17.2863 19.2784 16.8965 19.1174 16.6094 18.8302C16.3222 18.543 16.1611 18.1533 16.1611 17.7472V11.2208C16.1611 10.8147 16.3222 10.425 16.6094 10.1378C16.7167 10.0305 16.8383 9.94055 16.9697 9.87024V8.82141C16.9699 5.62823 19.6415 3.05856 22.8701 3.22571L23.1494 3.24719C26.0169 3.54032 28.1768 6.01509 28.1768 8.89856V9.87024C28.3082 9.94054 28.4298 10.0305 28.5371 10.1378C28.8243 10.425 28.9854 10.8147 28.9854 11.2208V17.7472ZM23.4414 8.82141C23.4413 8.34142 23.0521 7.95303 22.5693 7.95422L22.4717 7.95911C22.0539 8.00522 21.7051 8.38788 21.7051 8.86438V9.68958H23.4414V8.82141ZM24.9414 9.68958H26.6768V8.89856C26.6768 6.75645 25.0731 4.95243 22.9951 4.73938L22.793 4.72375C20.4264 4.60117 18.4699 6.48269 18.4697 8.82141V9.68958H20.2051V8.86438C20.2051 7.68027 21.0736 6.60517 22.3066 6.46887L22.5713 6.45422C23.8781 6.45213 24.9413 7.5127 24.9414 8.82141V9.68958Z" fill="#231F20"/>
</g>
<defs>
<clipPath id="clip0_4754_5874">
<rect width="50" height="50" fill="white"/>
</clipPath>
</defs>
</svg>
