<svg width="50" height="50" viewBox="0 0 50 50" fill="none" xmlns="http://www.w3.org/2000/svg">
<g clip-path="url(#clip0_4754_5884)">
<path d="M33.125 5.0001L35.625 9.65964H40L40.625 11.875L41.1993 15L8.74996 34.6905L8.12496 33.75H1.875L0.625 32.5V26.25L1.875 25H3.75L6.875 21.25L5 16.875L9.375 15L10 9.375H15L16.875 5L21.25 6.875L25 3.125L28.75 6.875L33.125 5.0001Z" fill="#00AAEE"/>
<path d="M19.1055 22.1192C19.1055 22.2154 19.0866 22.3106 19.0498 22.3995C19.013 22.4884 18.959 22.5691 18.891 22.6371C18.823 22.7051 18.7423 22.7591 18.6534 22.7959C18.5645 22.8326 18.4693 22.8516 18.3731 22.8515H16.4203C16.3241 22.8515 16.2289 22.8326 16.14 22.7958C16.0512 22.759 15.9705 22.7051 15.9025 22.637C15.8345 22.569 15.7805 22.4883 15.7437 22.3995C15.707 22.3106 15.688 22.2154 15.688 22.1192C15.688 22.0231 15.707 21.9278 15.7437 21.839C15.7805 21.7501 15.8345 21.6694 15.9025 21.6014C15.9705 21.5334 16.0512 21.4795 16.14 21.4426C16.2289 21.4058 16.3241 21.3869 16.4203 21.3869H16.6644V19.3924C16.534 19.4383 16.3933 19.4464 16.2585 19.4158C16.1237 19.3853 16.0003 19.3172 15.9025 19.2195C15.7652 19.0822 15.688 18.8959 15.688 18.7017C15.688 18.5074 15.7652 18.3211 15.9025 18.1838L16.8791 17.2074C16.9815 17.1051 17.112 17.0355 17.254 17.0073C17.396 16.9791 17.5432 16.9936 17.6769 17.049C17.8107 17.1044 17.925 17.1982 18.0055 17.3185C18.086 17.4389 18.129 17.5804 18.129 17.7252V21.3869H18.3731C18.7777 21.3869 19.1055 21.7146 19.1055 22.1192Z" fill="black"/>
<path d="M22.8709 19.1899C22.8709 18.786 22.5424 18.4576 22.1385 18.4576C21.7348 18.4576 21.4063 18.786 21.4063 19.1899V20.6546C21.4063 21.0585 21.7348 21.3869 22.1385 21.3869C22.5424 21.3869 22.8709 21.0585 22.8709 20.6546V19.1899ZM24.3356 19.1899V20.6546C24.3356 21.8659 23.3501 22.8515 22.1385 22.8515C20.9272 22.8515 19.9416 21.8659 19.9416 20.6546V19.1899C19.9416 17.9785 20.9272 16.993 22.1385 16.993C23.3501 16.993 24.3356 17.9784 24.3356 19.1899Z" fill="black"/>
<path d="M28.1031 19.1899C28.1031 18.786 27.7746 18.4576 27.3707 18.4576C26.967 18.4576 26.6385 18.786 26.6385 19.1899V20.6546C26.6385 21.0585 26.967 21.3869 27.3707 21.3869C27.7746 21.3869 28.1031 21.0585 28.1031 20.6546V19.1899ZM29.5678 19.1899V20.6546C29.5678 21.8659 28.5823 22.8515 27.3707 22.8515C26.1594 22.8515 25.1739 21.8659 25.1739 20.6546V19.1899C25.1739 17.9785 26.1594 16.993 27.3707 16.993C28.5823 16.993 29.5678 17.9784 29.5678 19.1899Z" fill="black"/>
<path d="M32.8472 22.1182C32.8461 22.0214 32.8642 21.9252 32.9005 21.8354C32.9369 21.7456 32.9906 21.6638 33.0588 21.5949C33.1269 21.526 33.208 21.4713 33.2974 21.434C33.3869 21.3967 33.4828 21.3775 33.5797 21.3775C33.6766 21.3775 33.7725 21.3968 33.8619 21.4341C33.9513 21.4715 34.0324 21.5262 34.1005 21.5951C34.1686 21.6641 34.2224 21.7458 34.2587 21.8357C34.295 21.9255 34.313 22.0217 34.3119 22.1185C34.3096 22.3113 34.2315 22.4954 34.0943 22.6309C33.9572 22.7664 33.7722 22.8424 33.5794 22.8424C33.3866 22.8423 33.2016 22.7663 33.0645 22.6307C32.9275 22.4952 32.8494 22.311 32.8472 22.1182ZM30.4061 17.7244C30.4061 17.6282 30.425 17.533 30.4618 17.4441C30.4986 17.3553 30.5525 17.2746 30.6205 17.2066C30.6885 17.1385 30.7693 17.0846 30.8581 17.0478C30.947 17.011 31.0422 16.9921 31.1384 16.9921C31.2833 16.9921 31.4249 17.035 31.5453 17.1155C31.6658 17.196 31.7597 17.3103 31.8151 17.4442C31.8706 17.578 31.8851 17.7253 31.8568 17.8674C31.8286 18.0095 31.7588 18.14 31.6564 18.2424C31.5539 18.3448 31.4234 18.4146 31.2813 18.4429C31.1393 18.4711 30.992 18.4566 30.8582 18.4012C30.7243 18.3457 30.6099 18.2518 30.5295 18.1314C30.449 18.0109 30.406 17.8693 30.4061 17.7244ZM34.2195 18.0802L31.7787 22.4738C31.6843 22.6435 31.5264 22.7689 31.3397 22.8222C31.1529 22.8756 30.9527 22.8527 30.7828 22.7585C30.6131 22.6641 30.4877 22.5062 30.4344 22.3194C30.381 22.1327 30.404 21.9324 30.4983 21.7626L32.9392 17.3688C32.9859 17.2848 33.0487 17.2107 33.124 17.1509C33.1993 17.0911 33.2856 17.0467 33.3781 17.0203C33.4706 16.9939 33.5674 16.9859 33.6629 16.9969C33.7584 17.0079 33.8509 17.0376 33.935 17.0843C34.1048 17.1786 34.2301 17.3365 34.2835 17.5233C34.3369 17.7101 34.3139 17.9104 34.2195 18.0802Z" fill="black"/>
<path d="M-0.0175781 32.3241C-0.0174651 31.9099 0.318278 31.5741 0.732422 31.5741C1.14657 31.5741 1.48231 31.9099 1.48242 32.3241C1.48242 32.7188 1.8025 33.0389 2.19727 33.0389H47.8027C48.1974 33.0388 48.5176 32.7188 48.5176 32.3241C48.5177 31.9099 48.8534 31.5741 49.2676 31.5741C49.6817 31.5741 50.0175 31.91 50.0176 32.3241C50.0176 33.5472 49.0259 34.5388 47.8027 34.5389H42.1797L41.1484 35.5692L41.3545 39.0965L41.3555 39.3329C41.3001 40.4226 40.4227 41.2998 39.333 41.3553L39.0967 41.3543L35.7988 41.162L34.7148 44.2821C34.3211 45.4144 33.084 45.9878 31.9824 45.5956L31.7646 45.5038L28.792 44.0643L26.5967 46.5321C25.7997 47.4273 24.438 47.4832 23.5703 46.7L23.4033 46.5321L21.207 44.0643L18.2354 45.5038C17.1564 46.0262 15.8767 45.5567 15.375 44.5008L15.2852 44.2821L14.2002 41.162L10.9033 41.3543C9.62684 41.4285 8.57128 40.373 8.64551 39.0965L8.85059 35.5692L7.82031 34.5389H2.19727C0.974069 34.5389 -0.0175781 33.5473 -0.0175781 32.3241ZM10.1494 34.7469L10.2031 34.8065C10.3194 34.9507 10.379 35.1343 10.3682 35.3211L10.1426 39.1834C10.1204 39.5642 10.4357 39.8794 10.8164 39.8573L14.6797 39.6317L14.8037 39.6346C15.0881 39.6653 15.3353 39.8576 15.4316 40.1346L16.7021 43.7899L16.7285 43.8543C16.8779 44.1693 17.2593 44.3096 17.5811 44.1541L21.0645 42.4676L21.1797 42.4227C21.4543 42.3419 21.756 42.4251 21.9512 42.6444L24.5234 45.535L24.5732 45.5848C24.832 45.8185 25.2388 45.8021 25.4766 45.535L28.0488 42.6444L28.1387 42.5584C28.3615 42.3791 28.6716 42.3399 28.9355 42.4676L32.418 44.1541L32.4834 44.1815C32.8117 44.2982 33.1803 44.1272 33.2979 43.7899L34.5684 40.1346L34.6191 40.0213C34.7562 39.7702 35.0275 39.6147 35.3203 39.6317L39.1836 39.8573H39.2539C39.579 39.8408 39.8411 39.579 39.8574 39.2538L39.8564 39.1834L39.6318 35.3211C39.6194 35.1074 39.6992 34.8983 39.8506 34.7469L40.0586 34.5389H36.1602C33.4657 37.6868 29.463 39.6883 25 39.6883C20.537 39.6883 16.5342 37.6868 13.8398 34.5389H9.94141L10.1494 34.7469ZM15.9033 34.5389C18.2726 36.7998 21.4773 38.1883 25 38.1883C28.5225 38.1883 31.7265 36.7995 34.0957 34.5389H15.9033ZM48.5176 26.4647C48.5175 26.0701 48.1974 25.7499 47.8027 25.7498H2.19727C1.80257 25.7498 1.48254 26.07 1.48242 26.4647C1.48242 26.8789 1.14664 27.2147 0.732422 27.2147C0.318208 27.2147 -0.0175781 26.8789 -0.0175781 26.4647C-0.0174556 25.2416 0.974146 24.2498 2.19727 24.2498H2.89062C2.90629 24.2081 2.92017 24.1656 2.93848 24.1248C3.06217 23.8492 3.24268 23.6026 3.46875 23.4022L5.93457 21.2069L4.49609 18.2352C3.93901 17.0843 4.51011 15.7049 5.71777 15.285L8.83691 14.2L8.64551 10.9041C8.5716 9.62796 9.62703 8.57123 10.9033 8.64535L14.2002 8.83774L15.2852 5.7186L15.375 5.49887C15.8768 4.44322 17.1565 3.97358 18.2354 4.49594L21.208 5.93539L23.4033 3.4686L23.5703 3.30063C24.4379 2.51721 25.7996 2.57244 26.5967 3.46762L28.791 5.93539L31.7646 4.49594L31.9834 4.40512C33.0846 4.01338 34.3211 4.58578 34.7148 5.71762L35.7988 8.83774L39.0967 8.64535L39.333 8.64438C40.5004 8.70384 41.4238 9.7067 41.3545 10.9032L41.1611 14.2L44.2822 15.285L44.501 15.3748C45.4865 15.8432 45.9608 16.9894 45.5947 18.0174L45.5039 18.2352L44.0645 21.2069L46.5322 23.4032L46.6992 23.5702C46.883 23.7737 47.0179 24.0055 47.1094 24.2498H47.8027C49.0258 24.2499 50.0175 25.2416 50.0176 26.4647C50.0176 26.8789 49.6817 27.2146 49.2676 27.2147C48.8534 27.2147 48.5176 26.8789 48.5176 26.4647ZM25.4766 4.46567C25.2389 4.19867 24.832 4.18133 24.5732 4.41488L24.5234 4.46567L21.9512 7.35629C21.7282 7.60659 21.3662 7.67816 21.0645 7.53207L17.5811 5.84653C17.2594 5.69094 16.878 5.83059 16.7285 6.14535L16.7021 6.21078L15.4316 9.86606C15.3215 10.1826 15.0143 10.3873 14.6797 10.368L10.8164 10.1434C10.4359 10.1213 10.1207 10.4357 10.1426 10.8163L10.3682 14.6795C10.3876 15.0143 10.182 15.3214 9.86523 15.4315L6.21094 16.702C5.85089 16.8271 5.68046 17.2385 5.84668 17.5819L7.53223 21.0643C7.67837 21.3662 7.60599 21.728 7.35547 21.951L4.77344 24.2498H10.3301C10.7219 16.4973 17.1517 10.3114 25 10.3114C32.8483 10.3114 39.2771 16.4973 39.6689 24.2498H45.2256L42.6445 21.951C42.394 21.728 42.3216 21.3662 42.4678 21.0643L44.1533 17.5819L44.1807 17.5164C44.2898 17.2097 44.1484 16.8679 43.8545 16.7284L43.7891 16.702L40.1348 15.4315C39.818 15.3214 39.6124 15.0143 39.6318 14.6795L39.8564 10.8163L39.8574 10.7459C39.8408 10.4209 39.5789 10.1599 39.2539 10.1434H39.1836L35.3203 10.368C34.9857 10.3873 34.6785 10.1826 34.5684 9.86606L33.2979 6.21078C33.1804 5.87301 32.8118 5.70222 32.4834 5.81918L32.418 5.84653L28.9355 7.53207C28.6338 7.67816 28.2718 7.60657 28.0488 7.35629L25.4766 4.46567ZM25 11.8114C17.9803 11.8114 12.2233 17.326 11.833 24.2498H38.166C37.7757 17.3261 32.0197 11.8114 25 11.8114Z" fill="black"/>
<path d="M7.21209 29.3945C7.21209 30.1771 6.90731 30.9126 6.35399 31.4659C5.80067 32.0192 5.06512 32.3239 4.2827 32.3239C2.66757 32.3239 1.35342 31.0098 1.35342 29.3945C1.35342 27.7794 2.66757 26.4653 4.2827 26.4653H4.8202C4.91637 26.4653 5.0116 26.4842 5.10046 26.521C5.18931 26.5578 5.27005 26.6117 5.33806 26.6797C5.40606 26.7477 5.46001 26.8284 5.49681 26.9173C5.53361 27.0061 5.55254 27.1014 5.55253 27.1975C5.55253 27.6021 5.22479 27.9299 4.8202 27.9299H4.2827C3.47509 27.9299 2.81806 28.587 2.81806 29.3945C2.81806 30.2022 3.47509 30.8592 4.2827 30.8592C4.67391 30.8592 5.04159 30.7068 5.31844 30.4302C5.40914 30.3397 5.48761 30.2378 5.55184 30.1269H5.21092C5.11474 30.1269 5.0195 30.108 4.93064 30.0712C4.84178 30.0344 4.76104 29.9804 4.69303 29.9124C4.62503 29.8444 4.57109 29.7637 4.53429 29.6748C4.4975 29.5859 4.47858 29.4907 4.4786 29.3945C4.4786 29.2983 4.49755 29.2031 4.53435 29.1143C4.57115 29.0254 4.6251 28.9447 4.6931 28.8767C4.7611 28.8087 4.84184 28.7548 4.93068 28.718C5.01953 28.6812 5.11476 28.6623 5.21092 28.6623H6.47977C6.57594 28.6622 6.67117 28.6812 6.76002 28.718C6.84888 28.7547 6.92962 28.8087 6.99762 28.8767C7.06563 28.9447 7.11957 29.0254 7.15637 29.1142C7.19317 29.2031 7.2121 29.2983 7.21209 29.3945Z" fill="black"/>
<path d="M12.7757 27.1975V29.8486C12.7757 31.2136 11.6589 32.3239 10.2859 32.3239C8.91277 32.3239 7.79598 31.2136 7.79598 29.8486V27.1975C7.79598 27.0033 7.87313 26.817 8.01047 26.6797C8.14781 26.5424 8.33407 26.4652 8.5283 26.4652C8.72252 26.4652 8.90879 26.5424 9.04613 26.6797C9.18347 26.817 9.26062 27.0033 9.26062 27.1975V29.8486C9.26062 30.4059 9.72058 30.8592 10.2859 30.8592C10.8511 30.8592 11.3111 30.4059 11.3111 29.8486V27.1975C11.3111 27.1014 11.33 27.0061 11.3669 26.9173C11.4037 26.8284 11.4576 26.7477 11.5256 26.6797C11.5937 26.6117 11.6744 26.5578 11.7633 26.521C11.8521 26.4842 11.9473 26.4653 12.0435 26.4653C12.2377 26.4653 12.424 26.5424 12.5613 26.6798C12.6986 26.8171 12.7757 27.0033 12.7757 27.1975Z" fill="black"/>
<path d="M15.8275 30.1269L15.5112 29.2832L15.1948 30.1269H15.8275ZM17.4163 32.2772C17.3262 32.311 17.2304 32.3267 17.1343 32.3234C17.0382 32.3202 16.9437 32.298 16.8561 32.2582C16.7686 32.2184 16.6897 32.1618 16.6241 32.0915C16.5584 32.0212 16.5073 31.9387 16.4735 31.8487L16.3769 31.5916H14.6458L14.5494 31.8487C14.5156 31.9387 14.4644 32.0213 14.3988 32.0915C14.3331 32.1618 14.2542 32.2185 14.1667 32.2583C14.0791 32.298 13.9846 32.3202 13.8885 32.3235C13.7923 32.3267 13.6965 32.311 13.6065 32.2773C13.5164 32.2435 13.4339 32.1923 13.3636 32.1266C13.2933 32.061 13.2367 31.9821 13.1969 31.8946C13.1571 31.807 13.1349 31.7125 13.1317 31.6163C13.1284 31.5202 13.1441 31.4244 13.1779 31.3343L14.8256 26.9403C14.878 26.8007 14.9716 26.6804 15.0942 26.5955C15.2167 26.5106 15.3622 26.4651 15.5113 26.4651C15.6604 26.4651 15.8059 26.5106 15.9284 26.5955C16.0509 26.6804 16.1446 26.8007 16.1969 26.9403L17.8446 31.3343C17.9128 31.5162 17.906 31.7176 17.8256 31.8945C17.7453 32.0713 17.5981 32.2089 17.4163 32.2772Z" fill="black"/>
<path d="M21.6023 28.6623C21.6023 28.2584 21.2792 27.9299 20.8824 27.9299H20.1865V29.3945H20.8824C21.2792 29.3945 21.6023 29.0661 21.6023 28.6623ZM22.8547 31.076C22.9565 31.1787 23.0256 31.3092 23.0533 31.4511C23.081 31.5929 23.0661 31.7398 23.0105 31.8733C22.9549 32.0067 22.8611 32.1207 22.7408 32.2009C22.6206 32.2811 22.4793 32.3239 22.3347 32.324C22.238 32.3241 22.1422 32.3051 22.0529 32.2679C21.9636 32.2307 21.8826 32.1761 21.8146 32.1073L20.577 30.8593H20.1865V31.5917C20.1865 31.6878 20.1675 31.7831 20.1308 31.8719C20.094 31.9608 20.04 32.0415 19.972 32.1095C19.904 32.1775 19.8233 32.2315 19.7344 32.2683C19.6456 32.3051 19.5503 32.324 19.4541 32.324C19.358 32.324 19.2627 32.3051 19.1739 32.2683C19.085 32.2315 19.0043 32.1775 18.9363 32.1095C18.8683 32.0415 18.8143 31.9608 18.7775 31.8719C18.7407 31.7831 18.7218 31.6878 18.7218 31.5917V27.1976C18.7218 27.1015 18.7408 27.0062 18.7776 26.9174C18.8144 26.8285 18.8683 26.7478 18.9363 26.6798C19.0043 26.6118 19.0851 26.5579 19.1739 26.5211C19.2628 26.4843 19.358 26.4654 19.4541 26.4654H20.8824C22.087 26.4654 23.067 27.451 23.067 28.6624C23.067 29.377 22.7257 30.0129 22.1985 30.4143L22.8547 31.076Z" fill="black"/>
<path d="M26.4948 30.1269L26.1784 29.2832L25.862 30.1269H26.4948ZM28.0835 32.2772C27.9935 32.311 27.8977 32.3267 27.8016 32.3234C27.7055 32.3202 27.6109 32.298 27.5234 32.2582C27.4358 32.2184 27.357 32.1618 27.2913 32.0915C27.2257 32.0212 27.1745 31.9387 27.1407 31.8487L27.0442 31.5916H25.313L25.2166 31.8487C25.1829 31.9387 25.1317 32.0213 25.066 32.0915C25.0003 32.1618 24.9215 32.2185 24.8339 32.2583C24.7464 32.298 24.6518 32.3202 24.5557 32.3235C24.4596 32.3267 24.3638 32.311 24.2737 32.2773C24.1837 32.2435 24.1011 32.1923 24.0309 32.1266C23.9606 32.061 23.9039 31.9821 23.8641 31.8946C23.8244 31.807 23.8022 31.7125 23.7989 31.6163C23.7957 31.5202 23.8114 31.4244 23.8451 31.3343L25.4929 26.9403C25.5452 26.8007 25.6389 26.6804 25.7614 26.5955C25.8839 26.5106 26.0295 26.4651 26.1785 26.4651C26.3276 26.4651 26.4731 26.5106 26.5957 26.5955C26.7182 26.6804 26.8119 26.8007 26.8642 26.9403L28.5118 31.3343C28.58 31.5162 28.5732 31.7176 28.4929 31.8945C28.4126 32.0713 28.2653 32.2089 28.0835 32.2772Z" fill="black"/>
<path d="M33.9784 27.1975V31.5916C33.9785 31.6877 33.9595 31.783 33.9227 31.8719C33.8859 31.9607 33.832 32.0415 33.764 32.1095C33.6959 32.1775 33.6152 32.2315 33.5263 32.2683C33.4375 32.3051 33.3422 32.324 33.246 32.324C33.131 32.324 33.0176 32.2969 32.9149 32.2449C32.8123 32.193 32.7234 32.1175 32.6554 32.0248L30.7561 29.4347V31.5917C30.7561 31.6878 30.7372 31.7831 30.7004 31.8719C30.6636 31.9608 30.6096 32.0415 30.5416 32.1095C30.4736 32.1775 30.3929 32.2315 30.304 32.2683C30.2152 32.3051 30.1199 32.324 30.0237 32.324C29.9276 32.324 29.8323 32.3051 29.7435 32.2683C29.6546 32.2315 29.5739 32.1775 29.5059 32.1095C29.4379 32.0415 29.3839 31.9608 29.3471 31.8719C29.3103 31.7831 29.2914 31.6878 29.2914 31.5917V27.1976C29.2914 27.0432 29.3401 26.8928 29.4307 26.7677C29.5213 26.6427 29.6491 26.5495 29.7958 26.5014C29.9426 26.4534 30.1007 26.453 30.2477 26.5002C30.3947 26.5475 30.523 26.64 30.6143 26.7645L32.5137 29.3546V27.1975C32.5159 27.0048 32.5941 26.8206 32.7312 26.6851C32.8683 26.5496 33.0533 26.4736 33.2461 26.4736C33.4388 26.4736 33.6238 26.5496 33.761 26.6851C33.8981 26.8206 33.9762 27.0048 33.9784 27.1975Z" fill="black"/>
<path d="M39.1803 27.1975C39.1803 27.6022 38.8524 27.9299 38.4479 27.9299H37.5203V31.5916C37.5203 31.6877 37.5014 31.783 37.4646 31.8718C37.4278 31.9607 37.3738 32.0414 37.3058 32.1094C37.2378 32.1774 37.1571 32.2314 37.0682 32.2682C36.9794 32.305 36.8842 32.3239 36.788 32.3239C36.6918 32.3239 36.5966 32.305 36.5077 32.2682C36.4189 32.2314 36.3381 32.1774 36.2701 32.1094C36.2021 32.0414 36.1482 31.9607 36.1114 31.8718C36.0746 31.783 36.0557 31.6877 36.0557 31.5916V27.9299H35.1281C34.9339 27.9299 34.7476 27.8528 34.6103 27.7155C34.473 27.5781 34.3958 27.3918 34.3958 27.1976C34.3958 27.0034 34.473 26.8171 34.6103 26.6798C34.7476 26.5425 34.9339 26.4653 35.1281 26.4653H38.4479C38.5441 26.4653 38.6393 26.4842 38.7282 26.521C38.817 26.5578 38.8978 26.6117 38.9658 26.6797C39.0338 26.7477 39.0877 26.8285 39.1245 26.9173C39.1613 27.0061 39.1803 27.1014 39.1803 27.1975Z" fill="black"/>
<path d="M43.3209 31.5916C43.3209 31.6877 43.302 31.783 43.2652 31.8718C43.2284 31.9607 43.1744 32.0414 43.1064 32.1094C43.0384 32.1775 42.9577 32.2314 42.8688 32.2682C42.78 32.305 42.6847 32.3239 42.5886 32.3239H40.3428C40.2466 32.3239 40.1514 32.3049 40.0625 32.2681C39.9737 32.2313 39.893 32.1774 39.825 32.1094C39.757 32.0414 39.703 31.9606 39.6662 31.8718C39.6295 31.783 39.6105 31.6877 39.6105 31.5916V27.1975C39.6105 27.1014 39.6295 27.0061 39.6662 26.9173C39.703 26.8285 39.757 26.7477 39.825 26.6797C39.893 26.6117 39.9737 26.5578 40.0625 26.521C40.1514 26.4842 40.2466 26.4653 40.3428 26.4653H42.5886C42.6847 26.4653 42.78 26.4842 42.8688 26.521C42.9577 26.5578 43.0384 26.6117 43.1064 26.6797C43.1744 26.7477 43.2284 26.8284 43.2652 26.9173C43.302 27.0061 43.3209 27.1014 43.3209 27.1975C43.3209 27.6021 42.9931 27.9299 42.5886 27.9299H41.0752V28.6623H42.0027C42.0989 28.6623 42.1941 28.6812 42.2829 28.718C42.3718 28.7548 42.4525 28.8087 42.5205 28.8767C42.5885 28.9447 42.6424 29.0254 42.6792 29.1143C42.716 29.2031 42.735 29.2983 42.7349 29.3945C42.7349 29.7992 42.4072 30.1269 42.0027 30.1269H41.0752V30.8592H42.5886C42.6847 30.8592 42.78 30.8781 42.8688 30.9149C42.9577 30.9517 43.0384 31.0057 43.1064 31.0737C43.1744 31.1417 43.2284 31.2224 43.2652 31.3113C43.302 31.4001 43.3209 31.4954 43.3209 31.5916Z" fill="black"/>
<path d="M47.8651 31.5916C47.8651 31.6877 47.8462 31.783 47.8094 31.8718C47.7726 31.9607 47.7187 32.0414 47.6507 32.1094C47.5827 32.1775 47.5019 32.2314 47.4131 32.2682C47.3242 32.305 47.229 32.3239 47.1328 32.3239H44.887C44.7908 32.3239 44.6956 32.3049 44.6068 32.2681C44.5179 32.2313 44.4372 32.1774 44.3692 32.1094C44.3012 32.0414 44.2473 31.9606 44.2105 31.8718C44.1737 31.783 44.1547 31.6877 44.1548 31.5916V27.1975C44.1547 27.1014 44.1737 27.0061 44.2105 26.9173C44.2473 26.8285 44.3012 26.7477 44.3692 26.6797C44.4372 26.6117 44.5179 26.5578 44.6068 26.521C44.6956 26.4842 44.7908 26.4653 44.887 26.4653H47.1328C47.2289 26.4653 47.3242 26.4842 47.413 26.521C47.5019 26.5578 47.5826 26.6117 47.6506 26.6797C47.7186 26.7477 47.7726 26.8284 47.8094 26.9173C47.8462 27.0061 47.8651 27.1014 47.8651 27.1975C47.8651 27.6021 47.5374 27.9299 47.1328 27.9299H45.6194V28.6623H46.5469C46.6431 28.6623 46.7383 28.6812 46.8272 28.718C46.916 28.7548 46.9967 28.8087 47.0647 28.8767C47.1327 28.9447 47.1867 29.0254 47.2235 29.1143C47.2602 29.2031 47.2792 29.2983 47.2792 29.3945C47.2792 29.7992 46.9514 30.1269 46.5469 30.1269H45.6194V30.8592H47.1328C47.229 30.8592 47.3242 30.8781 47.4131 30.9149C47.5019 30.9517 47.5827 31.0057 47.6507 31.0737C47.7187 31.1417 47.7726 31.2224 47.8094 31.3113C47.8462 31.4001 47.8651 31.4954 47.8651 31.5916Z" fill="black"/>
</g>
<defs>
<clipPath id="clip0_4754_5884">
<rect width="50" height="50" fill="white"/>
</clipPath>
</defs>
</svg>
