<svg width="48" height="50" viewBox="0 0 48 50" fill="none" xmlns="http://www.w3.org/2000/svg">
<path d="M33.0625 0.875305L36.0868 3.12506V10.8521L34.6248 11.7155L1.125 31.5003L2.12476 3.12506L4.96544 0.875305H33.0625Z" fill="#00AAEE"/>
<path d="M35.1978 7.19366C35.1978 6.77958 35.5337 6.44388 35.9478 6.44366C36.362 6.44366 36.6978 6.77945 36.6978 7.19366V31.9495L40.4575 28.1898C41.7321 26.9151 43.7991 26.9151 45.0737 28.1898L46.106 29.222L46.2212 29.3441C47.3414 30.584 47.3417 32.4763 46.2212 33.7161L46.106 33.8372L32.1099 47.8333C31.5046 48.4386 30.7743 48.9016 29.9722 49.1917L29.6245 49.306L27.5454 49.9134C25.612 50.4783 23.8177 48.6836 24.3823 46.7503L24.8696 45.0814H7.92334C7.5092 45.0814 7.17346 44.7455 7.17334 44.3314C7.17334 43.9171 7.50913 43.5814 7.92334 43.5814H25.4341C25.7049 43.0695 26.0499 42.5974 26.4624 42.1849L35.1978 33.4495V7.19366ZM25.8218 47.1712C25.5896 47.9672 26.3286 48.7055 27.1245 48.473L29.062 47.9066L26.3872 45.2318L25.8218 47.1712ZM27.5229 43.2464C27.3548 43.4145 27.2014 43.5954 27.064 43.7874L30.5063 47.2288C30.6983 47.0915 30.8812 46.9408 31.0493 46.7728L39.4204 38.4017L35.8931 34.8743L27.5229 43.2464ZM0.937988 40.3206V4.74347C0.937988 2.11443 3.06957 -0.0172729 5.69873 -0.0172729H31.938C34.0842 -0.0171482 35.8969 1.40238 36.4917 3.35284L36.5454 3.54327L36.561 3.61847C36.6188 3.99401 36.3839 4.35962 36.0083 4.45734C35.6325 4.55498 35.249 4.34985 35.1167 3.99347L35.0933 3.92023L35.0151 3.66144C34.5691 2.39204 33.3588 1.48285 31.938 1.48273H5.69873C3.89802 1.48273 2.43799 2.94283 2.43799 4.74347V40.3206C2.43799 41.6896 3.28228 42.8632 4.47998 43.346L4.72412 43.4339L4.79639 43.4603C5.14573 43.6098 5.33215 44.0028 5.21631 44.3734C5.10037 44.7438 4.7234 44.9602 4.35107 44.8841L4.27686 44.8655L4.09717 44.805C2.25653 44.1476 0.937988 42.389 0.937988 40.3206ZM34.5669 38.6683C34.8598 38.3754 35.3346 38.3754 35.6274 38.6683C35.9201 38.9612 35.9203 39.436 35.6274 39.7288L33.3374 42.0189C33.0446 42.3117 32.5698 42.3115 32.2769 42.0189C31.984 41.726 31.984 41.2512 32.2769 40.9583L34.5669 38.6683ZM11.5659 34.9134C11.5659 33.9599 10.7929 33.187 9.83936 33.1868C8.88578 33.1868 8.11279 33.9598 8.11279 34.9134C8.1128 35.8671 8.88582 36.64 9.83936 36.64C10.7929 36.6398 11.5659 35.8669 11.5659 34.9134ZM36.9546 33.8138L40.481 37.3401L42.2134 35.6077L38.687 32.0814L36.9546 33.8138ZM29.5903 34.1634L29.6665 34.1673C30.0449 34.2055 30.3403 34.5249 30.3403 34.9134C30.3403 35.3019 30.0449 35.6213 29.6665 35.6595L29.5903 35.6634H17.6899C17.2758 35.6634 16.9399 35.3276 16.9399 34.9134C16.9399 34.4992 17.2758 34.1634 17.6899 34.1634H29.5903ZM44.0132 29.2503C43.3243 28.5615 42.2069 28.5615 41.5181 29.2503L39.7476 31.0208L43.2739 34.5472L45.0454 32.7767L45.1665 32.6429C45.6937 31.9964 45.6937 31.0628 45.1665 30.4163L45.0454 30.2825L44.0132 29.2503ZM11.5659 25.6556C11.5658 24.7021 10.7928 23.9292 9.83936 23.929C8.88589 23.929 8.11291 24.702 8.11279 25.6556C8.11279 26.6092 8.88578 27.3821 9.83936 27.3821C10.7929 27.382 11.5659 26.6091 11.5659 25.6556ZM29.5903 24.9056C30.0044 24.9056 30.3402 25.2415 30.3403 25.6556C30.3403 26.0698 30.0045 26.4055 29.5903 26.4056H17.6899C17.2758 26.4056 16.9399 26.0698 16.9399 25.6556C16.9401 25.2415 17.2758 24.9056 17.6899 24.9056H29.5903ZM12.3247 13.0794C12.6176 12.7867 13.0924 12.7866 13.3853 13.0794C13.678 13.3722 13.6779 13.8471 13.3853 14.14L9.07471 18.4505C8.93415 18.5911 8.7432 18.6701 8.54443 18.6702C8.34554 18.6702 8.15481 18.5911 8.01416 18.4505L6.29346 16.7298L6.2417 16.6732C6.00139 16.3786 6.01885 15.9439 6.29346 15.6693C6.56807 15.395 7.00194 15.3783 7.29639 15.6185L7.354 15.6693L8.54443 16.8597L12.3247 13.0794ZM29.5903 15.6478L29.6665 15.6517C30.0448 15.6899 30.3401 16.0095 30.3403 16.3978C30.3403 16.7862 30.0449 17.1056 29.6665 17.1439L29.5903 17.1478H17.6899C17.2758 17.1477 16.9399 16.812 16.9399 16.3978C16.9402 15.9838 17.2759 15.6478 17.6899 15.6478H29.5903ZM27.4507 6.0755C27.4504 5.41615 26.9157 4.88214 26.2563 4.88214H11.3794C10.7202 4.88228 10.1853 5.41624 10.1851 6.0755V7.76788C10.1851 8.42736 10.7201 8.96208 11.3794 8.96222H26.2563C26.9158 8.96222 27.4507 8.42745 27.4507 7.76788V6.0755ZM13.0659 34.9134C13.0659 36.6954 11.6213 38.1398 9.83936 38.14C8.05736 38.14 6.6128 36.6954 6.61279 34.9134C6.61279 33.1313 8.05739 31.6868 9.83936 31.6868C11.6213 31.687 13.0659 33.1314 13.0659 34.9134ZM13.0659 25.6556C13.0659 27.4376 11.6213 28.882 9.83936 28.8821C8.05739 28.8821 6.61279 27.4377 6.61279 25.6556C6.61291 23.8736 8.05742 22.429 9.83936 22.429C11.6212 22.4292 13.0658 23.8737 13.0659 25.6556ZM28.9507 7.76788C28.9507 9.25578 27.7443 10.4622 26.2563 10.4622H11.3794C9.89153 10.4621 8.68506 9.25569 8.68506 7.76788V6.0755C8.68531 4.58791 9.89168 3.38228 11.3794 3.38214H26.2563C27.7442 3.38214 28.9504 4.58782 28.9507 6.0755V7.76788Z" fill="#231F20"/>
</svg>
