<svg width="50" height="50" viewBox="0 0 50 50" fill="none" xmlns="http://www.w3.org/2000/svg">
<path d="M30.625 16.25L28.75 20.625L25 23.125L25.625 27.5L28.125 27.7057L26.4244 28.7101L6.25 40.625V32.5L9.375 28.75L18.75 27.5V23.125L15 20L13.75 13.75L10 13.125L10.0904 10H13.75V2.5L15.625 1.25H28.125L30.625 3.125V10H33.75V13.125L30.625 13.75V16.25Z" fill="#00AAEE"/>
<path d="M29.6431 11.9385L27.0562 15.1729C26.9139 15.3505 26.6988 15.454 26.4712 15.4541H17.646C17.4182 15.4541 17.2024 15.3508 17.0601 15.1729L14.4741 11.9395V15.1943C14.4741 19.3832 17.8693 22.7791 22.0581 22.7793C26.247 22.7793 29.6431 19.3832 29.6431 15.1943V11.9385ZM32.1235 48.2734H43.3706V34.085H40.9487V35.2959C40.9486 35.71 40.6128 36.0458 40.1987 36.0459H35.2954C34.8815 36.0456 34.5455 35.7099 34.5454 35.2959V34.085H32.1235V48.2734ZM40.1987 43.3711C40.6129 43.3711 40.9487 43.7069 40.9487 44.1211C40.9485 44.5351 40.6128 44.871 40.1987 44.8711H35.2964C34.8823 44.8711 34.5466 44.5351 34.5464 44.1211C34.5464 43.7069 34.8822 43.3711 35.2964 43.3711H40.1987ZM40.1987 39.4482L40.2749 39.4521C40.6532 39.4903 40.9486 39.8099 40.9487 40.1982C40.9487 40.5867 40.6533 40.9061 40.2749 40.9443L40.1987 40.9482H35.2964C34.8822 40.9482 34.5464 40.6125 34.5464 40.1982C34.5465 39.7842 34.8823 39.4482 35.2964 39.4482H40.1987ZM26.0659 28.1533C25.5524 29.8818 23.9533 31.1426 22.0581 31.1426C20.1638 31.1424 18.5637 29.8825 18.0503 28.1533L14.6733 28.6729L22.0581 36.1865L29.4429 28.6729L26.0659 28.1533ZM36.0454 34.5459H39.4487V32.123H36.0454V34.5459ZM24.7407 23.876C23.8928 24.1376 22.9919 24.2793 22.0581 24.2793C21.1246 24.2793 20.2241 24.1375 19.3765 23.876V26.9609C19.3765 28.443 20.5777 29.6424 22.0581 29.6426C23.5393 29.6426 24.7407 28.4421 24.7407 26.9609V23.876ZM23.2378 18.1055C23.4995 17.8297 23.9325 17.7919 24.2397 18.0293C24.5674 18.2827 24.6279 18.7534 24.3745 19.0811L24.1978 19.3047C24.0921 19.4273 23.9431 19.5822 23.7524 19.7354C23.4205 20.0018 22.935 20.2812 22.314 20.3438L22.0396 20.3564C21.2975 20.3516 20.7278 20.0316 20.355 19.7295C20.1677 19.5777 20.0216 19.4241 19.9175 19.3027L19.7417 19.0811L19.6987 19.0186C19.4975 18.6959 19.5693 18.267 19.8765 18.0293C20.1836 17.7918 20.6167 17.8299 20.8784 18.1055L20.9292 18.1641L21.0649 18.333C21.2508 18.5477 21.5849 18.8544 22.0493 18.8574L22.1646 18.8516C22.7277 18.7936 23.0839 18.2987 23.188 18.1641L23.2378 18.1055ZM18.0073 13.9541H26.1099L28.8325 10.5518H15.2847L18.0073 13.9541ZM6.62939 48.2734H11.0132V40.2959C11.0133 39.8818 11.3491 39.5459 11.7632 39.5459C12.1771 39.5462 12.513 39.882 12.5132 40.2959V48.2734H30.6235V33.335C30.6235 32.9208 30.9594 32.585 31.3735 32.585H34.5454V31.373C34.5457 30.9592 34.8816 30.6233 35.2954 30.623H35.9194C35.2457 29.9718 34.3914 29.5009 33.4282 29.2949L33.1343 29.2412L31.269 28.9541L22.5933 37.7822C22.4523 37.9257 22.2593 38.0068 22.0581 38.0068C21.9073 38.0068 21.7612 37.9612 21.6382 37.8779L21.5239 37.7822L12.8462 28.9541L10.9829 29.2412C8.47842 29.6271 6.62939 31.7813 6.62939 34.3154V48.2734ZM33.5649 11.7627C33.5649 11.1356 33.0888 10.6196 32.478 10.5576L32.354 10.5518H31.1431V12.9736H32.354C33.0229 12.9736 33.5649 12.4315 33.5649 11.7627ZM10.5513 11.7627C10.5513 12.4315 11.0943 12.9736 11.7632 12.9736H12.9741V10.5518H11.7632C11.0943 10.5518 10.5513 11.0938 10.5513 11.7627ZM29.6323 3.68359C29.5282 2.65753 28.7121 1.8424 27.686 1.73828L27.4634 1.72656H16.6538C15.45 1.72656 14.4741 2.70241 14.4741 3.90625V9.05176H29.6431V3.90625L29.6323 3.68359ZM31.1431 9.05176H32.354L32.6313 9.06543C33.9985 9.20424 35.0649 10.3589 35.0649 11.7627C35.0649 13.2599 33.8513 14.4736 32.354 14.4736H31.1431V15.1943C31.1431 18.7029 29.1527 21.7444 26.2407 23.2578V26.6631L31.1382 27.416C31.1398 27.4163 31.1414 27.4167 31.1431 27.417L33.3628 27.7588L33.7427 27.8281C35.4705 28.1977 36.9266 29.2274 37.8628 30.623H40.1987C40.6127 30.6231 40.9485 30.9591 40.9487 31.373V32.585H44.1206C44.5348 32.585 44.8706 32.9207 44.8706 33.335V49.0234C44.8706 49.4377 44.5348 49.7734 44.1206 49.7734H5.87939C5.46518 49.7734 5.12939 49.4377 5.12939 49.0234V34.3154C5.12939 31.0407 7.51866 28.2573 10.7544 27.7588L12.9731 27.417C12.9748 27.4167 12.9764 27.4163 12.978 27.416L17.8765 26.6631V23.2588C14.9642 21.7455 12.9741 18.7032 12.9741 15.1943V14.4736H11.7632C10.2659 14.4736 9.05127 13.2599 9.05127 11.7627C9.05127 10.2655 10.2651 9.05202 11.7622 9.05176H12.9741V3.90625C12.9741 1.87395 14.6216 0.226562 16.6538 0.226562H27.4634L27.6528 0.231445C29.5971 0.330045 31.1429 1.93755 31.1431 3.90625V9.05176Z" fill="black"/>
</svg>
