<svg width="154" height="31" viewBox="0 0 154 31" fill="none" xmlns="http://www.w3.org/2000/svg">
<path fill-rule="evenodd" clip-rule="evenodd" d="M134.244 3.8611L132.215 0.500708H154L153.128 3.8611H134.244ZM142.486 18.3231H137.504L140.932 5.10618H145.915L142.486 18.3231Z" fill="#231F20"/>
<path fill-rule="evenodd" clip-rule="evenodd" d="M86.8574 10.8885L85.7871 15.0135H97.5053L96.6468 18.323H79.9767L83.4186 5.05517H88.3705L87.69 7.68072H97.6856L96.8538 10.8885H86.8574Z" fill="#231F20"/>
<path fill-rule="evenodd" clip-rule="evenodd" d="M6.02428 3.81047L4.02342 0.500167H23.1531L22.2945 3.81047H6.02428Z" fill="#231F20"/>
<path fill-rule="evenodd" clip-rule="evenodd" d="M57.638 3.81048L55.6372 0.500178H67.8156C69.7231 0.500178 71.3108 0.763906 72.5786 1.2898C73.8464 1.81569 74.7347 2.56305 75.2419 3.53032C75.75 4.49837 75.8315 5.64406 75.4881 6.9674C75.1494 8.27431 74.4736 9.41609 73.4622 10.392C72.45 11.3678 71.1751 12.1152 69.6361 12.6325C68.097 13.1505 66.3745 13.4088 64.467 13.4088H60.1305L58.8556 18.3234H53.8731L57.3017 5.10643H62.2842L61.0023 10.0484H65.062C66.5595 10.0484 67.767 9.78077 68.6843 9.24627C69.6024 8.71177 70.1888 7.95188 70.4444 6.9674C70.7039 5.96648 70.5134 5.19799 69.8729 4.66349C69.2331 4.12821 68.1637 3.86135 66.667 3.86135H57.6247L57.638 3.81048Z" fill="#231F20"/>
<path fill-rule="evenodd" clip-rule="evenodd" d="M83.7417 3.81047L81.7408 0.500167H100.87L100.012 3.81047H83.7417Z" fill="#231F20"/>
<path fill-rule="evenodd" clip-rule="evenodd" d="M109.29 3.81048L107.289 0.500178H119.468C121.375 0.500178 122.963 0.763906 124.231 1.2898C125.499 1.81569 126.387 2.56305 126.894 3.53032C127.402 4.49837 127.484 5.64406 127.14 6.9674C126.797 8.29152 126.116 9.43252 125.098 10.392C124.081 11.3506 122.798 12.0855 121.252 12.5949L124.594 18.3234H119.242L116.378 13.3579H111.796L110.508 18.3234H105.525L108.954 5.10643H113.936L112.648 10.0735H116.708C118.204 10.0735 119.413 9.8019 120.333 9.25879C121.253 8.71568 121.841 7.95188 122.096 6.9674C122.356 5.96648 122.165 5.19799 121.525 4.66349C120.885 4.12821 119.816 3.86135 118.319 3.86135H109.277L109.29 3.81048Z" fill="#231F20"/>
<path fill-rule="evenodd" clip-rule="evenodd" d="M9.14019 10.8885L8.06998 15.0135H19.7882L18.9296 18.323H2.25951L5.70141 5.05517H10.6534L9.97205 7.68072H19.9685L19.1358 10.8885H9.14019Z" fill="#231F20"/>
<path fill-rule="evenodd" clip-rule="evenodd" d="M41.0982 8.39621L50.1358 0.5H44.4147L39.0762 5.16495L41.0982 8.39621Z" fill="#231F20"/>
<path fill-rule="evenodd" clip-rule="evenodd" d="M36.8729 13.6586L39.7918 18.3227H45.5122L40.572 10.4273L36.8729 13.6586Z" fill="#231F20"/>
<path fill-rule="evenodd" clip-rule="evenodd" d="M24.0162 18.3231H29.7365L39.936 9.41192L34.36 0.500708H28.6397L34.2157 9.41192L24.0162 18.3231Z" fill="#00ADEF"/>
<path fill-rule="evenodd" clip-rule="evenodd" d="M142.226 24.3435L141.93 25.4672H138.277L137.947 26.782H141.182L140.906 27.8713H137.661L137.309 29.2721H141.111L140.815 30.3959H135.42L136.961 24.3435H142.226ZM130.535 27.275H132.008L131.37 29.7652C131.012 30.0007 130.6 30.1831 130.132 30.3098C129.664 30.4366 129.182 30.5 128.684 30.5C127.987 30.5 127.383 30.3904 126.871 30.1713C126.359 29.9522 125.966 29.6439 125.694 29.2463C125.422 28.848 125.292 28.3902 125.304 27.8713C125.321 27.1858 125.518 26.5652 125.897 26.0119C126.275 25.4586 126.8 25.0251 127.471 24.7113C128.143 24.3967 128.909 24.2394 129.772 24.2394C130.436 24.2394 131.009 24.3294 131.493 24.5078C131.976 24.6862 132.362 24.9484 132.653 25.2943L131.479 26.1074C131.252 25.8711 130.994 25.6997 130.705 25.5925C130.415 25.486 130.071 25.4328 129.674 25.4328C129.142 25.4328 128.673 25.5353 128.262 25.7396C127.852 25.9446 127.533 26.2256 127.301 26.5832C127.071 26.9401 126.95 27.3407 126.939 27.7845C126.927 28.2517 127.093 28.6218 127.435 28.8957C127.776 29.1696 128.272 29.3066 128.923 29.3066C129.333 29.3066 129.72 29.2346 130.082 29.0906L130.535 27.275ZM118.992 25.7005L117.293 28.0357H119.523L118.992 25.7005ZM121.675 30.3959H120.062L119.765 29.0992H116.521L115.583 30.3959H113.861L118.517 24.3435H120.11L121.675 30.3959ZM108.441 27.5857C108.978 27.5857 109.397 27.4792 109.697 27.2664C109.998 27.0527 110.153 26.7475 110.162 26.3492C110.169 26.0612 110.062 25.8452 109.84 25.7005C109.617 25.5572 109.297 25.4845 108.88 25.4845H107.606L107.067 27.5857H108.441ZM111.798 26.2201C111.784 26.7843 111.596 27.2687 111.236 27.6725C110.873 28.0756 110.379 28.3612 109.751 28.5287L110.92 30.3959H109.218L108.165 28.7016H106.791L106.361 30.3959H104.739L106.28 24.3435H109.116C109.979 24.3435 110.645 24.5078 111.115 24.8365C111.585 25.1652 111.813 25.6261 111.798 26.2201ZM97.3951 29.3066C97.9063 29.3066 98.3563 29.2001 98.7467 28.9865C99.1364 28.7729 99.439 28.488 99.6531 28.1304C99.8679 27.7735 99.98 27.3783 99.991 26.9463C100.002 26.4846 99.8444 26.1176 99.5198 25.8437C99.1944 25.5698 98.7295 25.4328 98.1266 25.4328C97.6154 25.4328 97.1646 25.5392 96.7749 25.7529C96.3845 25.9665 96.0826 26.2514 95.8678 26.609C95.6537 26.9659 95.5416 27.3611 95.5306 27.7931C95.5197 28.2548 95.6765 28.6218 96.0018 28.8957C96.3272 29.1696 96.7914 29.3066 97.3951 29.3066ZM97.2265 30.5C96.5303 30.5 95.9289 30.3904 95.4232 30.1713C94.9175 29.9522 94.5341 29.6439 94.2715 29.2463C94.0088 28.848 93.8842 28.3902 93.8967 27.8713C93.9132 27.1858 94.1092 26.5668 94.4839 26.0166C94.8587 25.4665 95.377 25.0321 96.0379 24.7152C96.6996 24.3982 97.4515 24.2394 98.2944 24.2394C98.9914 24.2394 99.5927 24.3489 100.098 24.5681C100.603 24.7872 100.988 25.0955 101.25 25.4931C101.513 25.8914 101.637 26.3492 101.625 26.8681C101.608 27.5544 101.412 28.1726 101.038 28.7228C100.662 29.2737 100.144 29.7072 99.4829 30.0242C98.8212 30.3411 98.0693 30.5 97.2265 30.5ZM87.8981 30.3959H86.2853L87.5296 25.4845H85.2998L85.5961 24.3435H91.6685L91.3713 25.4845H89.1517L87.8981 30.3959ZM78.296 30.5C77.7448 30.5 77.2187 30.4366 76.7177 30.3098C76.2167 30.1831 75.8153 30.0218 75.515 29.8254L76.1979 28.7447C76.5115 28.9466 76.8667 29.1023 77.2619 29.2111C77.6578 29.3207 78.0647 29.3754 78.4818 29.3754C78.9264 29.3754 79.28 29.312 79.5418 29.1853C79.8037 29.0585 79.9378 28.8855 79.9425 28.6664C79.9472 28.488 79.8476 28.351 79.6445 28.2556C79.4407 28.1609 79.1145 28.0584 78.6661 27.9488C78.2176 27.8338 77.8522 27.7226 77.5692 27.6162C77.2869 27.5098 77.0431 27.3493 76.8393 27.1365C76.6354 26.9228 76.5382 26.6403 76.546 26.2889C76.5562 25.8797 76.6966 25.5197 76.9655 25.2082C77.2352 24.8967 77.6131 24.6573 78.0976 24.4906C78.583 24.3231 79.1443 24.2394 79.7817 24.2394C80.2522 24.2394 80.6959 24.2848 81.1115 24.374C81.5278 24.4632 81.883 24.5915 82.1778 24.7582L81.5443 25.8304C81.2894 25.6754 81.0001 25.558 80.6771 25.4805C80.3541 25.4031 80.0162 25.3639 79.6649 25.3639C79.207 25.3639 78.8433 25.4328 78.5743 25.5713C78.3054 25.7098 78.1682 25.8883 78.1635 26.1074C78.1604 26.2396 78.2137 26.3508 78.3242 26.44C78.4348 26.53 78.5759 26.602 78.7476 26.656C78.9185 26.7108 79.1592 26.7757 79.4689 26.8508C79.9111 26.9549 80.2733 27.0598 80.5564 27.1662C80.8394 27.2734 81.0793 27.4292 81.2769 27.6334C81.4737 27.8385 81.5686 28.1077 81.5607 28.4418C81.5505 28.8566 81.4086 29.2189 81.1366 29.5273C80.8629 29.8356 80.4827 30.0751 79.9942 30.2449C79.5058 30.4147 78.9397 30.5 78.296 30.5ZM65.6754 29.4451C66.1403 29.4451 66.5904 29.3269 67.0279 29.0906L65.6777 27.7242C65.3022 27.8799 65.0247 28.0372 64.8451 28.1953C64.6648 28.3542 64.5731 28.5373 64.5676 28.7447C64.5629 28.9521 64.6562 29.1203 64.849 29.2502C65.0419 29.3801 65.3171 29.4451 65.6754 29.4451ZM66.8836 25.1824C66.6249 25.1824 66.4163 25.2426 66.2572 25.3639C66.098 25.4845 66.0165 25.6465 66.0117 25.8476C66.0094 25.9462 66.0353 26.0471 66.0886 26.1504C66.1427 26.2545 66.2344 26.3782 66.3638 26.5222C66.7926 26.3555 67.0882 26.2036 67.2505 26.0683C67.4128 25.9329 67.4967 25.7818 67.5006 25.6144C67.5038 25.4876 67.4497 25.3835 67.3383 25.3029C67.2278 25.2223 67.0765 25.1824 66.8836 25.1824ZM69.8308 27.6123C69.5721 28.1476 69.249 28.6202 68.8609 29.0295L69.4725 29.6525L68.4172 30.5L67.7946 29.8771C67.082 30.2926 66.3003 30.5 65.4512 30.5C64.9666 30.5 64.5386 30.4382 64.1661 30.3137C63.7945 30.1901 63.5068 30.014 63.3029 29.7863C63.0998 29.5586 63.0018 29.2894 63.0097 28.9779C63.0191 28.5631 63.1924 28.1984 63.5287 27.8838C63.8651 27.57 64.3543 27.2805 64.998 27.0152C64.7142 26.6748 64.577 26.3296 64.5856 25.9775C64.5934 25.6316 64.7056 25.3287 64.9204 25.0697C65.136 24.8107 65.4229 24.6111 65.7812 24.4734C66.1395 24.3349 66.5347 24.2652 66.9659 24.2652C67.5234 24.2652 67.9734 24.3755 68.3168 24.5939C68.6594 24.813 68.8264 25.1159 68.817 25.5025C68.8084 25.8711 68.6555 26.1896 68.3607 26.4572C68.0659 26.7256 67.6269 26.9776 67.0435 27.214L68.0542 28.2258C68.2933 27.9433 68.4932 27.6264 68.6547 27.275L69.8308 27.6123ZM55.3818 27.275H56.855L56.2168 29.7652C55.8601 30.0007 55.4477 30.1831 54.9796 30.3098C54.5123 30.4366 54.0294 30.5 53.5315 30.5C52.8353 30.5 52.2308 30.3904 51.718 30.1713C51.206 29.9522 50.814 29.6439 50.5412 29.2463C50.2691 28.848 50.139 28.3902 50.1515 27.8713C50.168 27.1858 50.3656 26.5652 50.7443 26.0119C51.1229 25.4586 51.6475 25.0251 52.3186 24.7113C52.9897 24.3967 53.7565 24.2394 54.6197 24.2394C55.283 24.2394 55.8562 24.3294 56.3399 24.5078C56.8229 24.6862 57.2102 24.9484 57.5003 25.2943L56.3258 26.1074C56.0992 25.8711 55.8413 25.6997 55.552 25.5925C55.2626 25.486 54.9185 25.4328 54.521 25.4328C53.9902 25.4328 53.5197 25.5353 53.1097 25.7396C52.7004 25.9446 52.3798 26.2256 52.1485 26.5832C51.918 26.9401 51.7972 27.3407 51.7862 27.7845C51.7745 28.2517 51.9399 28.6218 52.2817 28.8957C52.6236 29.1696 53.1191 29.3066 53.7698 29.3066C54.1815 29.3066 54.568 29.2346 54.9294 29.0906L55.3818 27.275ZM44.4869 28.139L45.445 24.3435H47.0373L45.4967 30.3959H44.1733L41.6675 26.609L40.6992 30.3959H39.1068L40.6475 24.3435H41.9811L44.4869 28.139ZM34.7421 30.3959H33.1199L34.6606 24.3435H36.2827L34.7421 30.3959ZM26.429 28.6578L29.689 24.3435H31.3606L26.8046 30.3959H25.2224L23.7468 24.3435H25.409L26.429 28.6578ZM16.0068 29.3066C16.518 29.3066 16.9681 29.2001 17.3585 28.9865C17.7482 28.7729 18.0508 28.488 18.2649 28.1304C18.4797 27.7735 18.5918 27.3783 18.602 26.9463C18.6138 26.4846 18.4562 26.1176 18.1316 25.8437C17.8062 25.5698 17.3421 25.4328 16.7376 25.4328C16.2272 25.4328 15.7763 25.5392 15.3867 25.7529C14.9962 25.9665 14.6944 26.2514 14.4795 26.609C14.2655 26.9659 14.1526 27.3611 14.1424 27.7931C14.1314 28.2548 14.2882 28.6218 14.6136 28.8957C14.9382 29.1696 15.4031 29.3066 16.0068 29.3066ZM15.8383 30.5C15.1421 30.5 14.5407 30.3904 14.035 30.1713C13.5293 29.9522 13.1451 29.6439 12.8833 29.2463C12.6206 28.848 12.4959 28.3902 12.5085 27.8713C12.5249 27.1858 12.7202 26.5668 13.0957 26.0166C13.4705 25.4665 13.9887 25.0321 14.6497 24.7152C15.3114 24.3982 16.0633 24.2394 16.9061 24.2394C17.6031 24.2394 18.2045 24.3489 18.7102 24.5681C19.2151 24.7872 19.5993 25.0955 19.8619 25.4931C20.1238 25.8914 20.2493 26.3492 20.2367 26.8681C20.2195 27.5544 20.0242 28.1726 19.6487 28.7228C19.2739 29.2737 18.7557 29.7072 18.0947 30.0242C17.433 30.3411 16.6811 30.5 15.8383 30.5ZM4.50506 28.1131L8.00028 24.3435H9.3841L7.85367 30.3959H6.34049L7.24369 26.7992L4.51446 29.7565H3.79786L2.43756 26.7648L1.51318 30.3959H0L1.54062 24.3435H2.85467L4.50506 28.1131Z" fill="#00ADEF"/>
</svg>
