<svg width="185" height="36" viewBox="0 0 185 36" fill="none" xmlns="http://www.w3.org/2000/svg">
<path fill-rule="evenodd" clip-rule="evenodd" d="M161.267 4.03332L158.829 0.000849608H185L183.953 4.03332H161.267ZM171.169 21.3878H165.183L169.302 5.52742H175.288L171.169 21.3878Z" fill="white"/>
<path fill-rule="evenodd" clip-rule="evenodd" d="M104.342 12.4662L103.056 17.4162H117.133L116.102 21.3876H96.0759L100.211 5.4662H106.159L105.342 8.61686H117.35L116.35 12.4662H104.342Z" fill="white"/>
<path fill-rule="evenodd" clip-rule="evenodd" d="M7.23695 3.97257L4.83333 0.000199836H27.8137L26.7824 3.97257C19.1494 3.97257 14.8699 3.97257 7.23695 3.97257Z" fill="white"/>
<path fill-rule="evenodd" clip-rule="evenodd" d="M69.2405 3.97258L66.8369 0.00021386H81.4668C83.7583 0.00021386 85.6656 0.316687 87.1885 0.947758C88.7115 1.57883 89.7787 2.47566 90.388 3.63638C90.9984 4.79804 91.0963 6.17287 90.6838 7.76088C90.2769 9.32917 89.465 10.6993 88.25 11.8704C87.0341 13.0414 85.5026 13.9382 83.6537 14.559C81.8049 15.1807 79.7356 15.4906 77.4441 15.4906H72.2346L70.7032 21.3881H64.7177L68.8364 5.52772H74.8219L73.282 11.4581H78.1589C79.9579 11.4581 81.4084 11.1369 82.5103 10.4955C83.6132 9.85412 84.3178 8.94226 84.6248 7.76088C84.9366 6.55978 84.7077 5.63759 83.9382 4.99619C83.1696 4.35385 81.8849 4.03362 80.0869 4.03362H69.2245L69.2405 3.97258Z" fill="white"/>
<path fill-rule="evenodd" clip-rule="evenodd" d="M100.599 3.97257L98.1951 0.000199836H121.176L120.144 3.97257H100.599Z" fill="white"/>
<path fill-rule="evenodd" clip-rule="evenodd" d="M131.29 3.97258L128.886 0.00021386H143.517C145.808 0.00021386 147.715 0.316687 149.238 0.947758C150.762 1.57883 151.828 2.47566 152.437 3.63638C153.048 4.79804 153.147 6.17287 152.733 7.76088C152.321 9.34983 151.503 10.719 150.281 11.8704C149.058 13.0207 147.517 13.9026 145.66 14.5139L149.675 21.3881H143.246L139.805 15.4295H134.3L132.753 21.3881H126.767L130.886 5.52772H136.871L135.324 11.4881H140.201C141.999 11.4881 143.451 11.1623 144.556 10.5105C145.661 9.85882 146.367 8.94226 146.674 7.76088C146.986 6.55978 146.757 5.63759 145.988 4.99619C145.219 4.35385 143.935 4.03362 142.136 4.03362H131.274L131.29 3.97258Z" fill="white"/>
<path fill-rule="evenodd" clip-rule="evenodd" d="M10.9801 12.4662L9.69446 17.4162H23.7715L22.7402 21.3876H2.71434L6.8491 5.4662H12.7979L11.9794 8.61686H23.9881L22.9879 12.4662H10.9801Z" fill="white"/>
<path fill-rule="evenodd" clip-rule="evenodd" d="M49.3712 9.47545L60.228 0H53.3553L46.9422 5.59794L49.3712 9.47545Z" fill="white"/>
<path fill-rule="evenodd" clip-rule="evenodd" d="M44.2954 15.7903L47.8019 21.3873H54.6737L48.739 11.9128L44.2954 15.7903Z" fill="white"/>
<path fill-rule="evenodd" clip-rule="evenodd" d="M28.8507 21.3878H35.7225L47.9751 10.6943L41.2766 0.000849608H34.4048L41.1033 10.6943L28.8507 21.3878Z" fill="#00ADEF"/>
<path fill-rule="evenodd" clip-rule="evenodd" d="M170.856 28.6122L170.5 29.9607H166.112L165.715 31.5384H169.602L169.27 32.8456H165.373L164.949 34.5266H169.517L169.161 35.8751H162.68L164.531 28.6122H170.856ZM156.811 32.13H158.581L157.814 35.1182C157.385 35.4009 156.889 35.6197 156.328 35.7718C155.766 35.9239 155.186 36 154.588 36C153.751 36 153.025 35.8685 152.41 35.6056C151.795 35.3426 151.323 34.9726 150.996 34.4956C150.669 34.0176 150.513 33.4682 150.528 32.8456C150.548 32.0229 150.785 31.2782 151.24 30.6143C151.694 29.9504 152.325 29.4301 153.131 29.0535C153.937 28.676 154.859 28.4873 155.895 28.4873C156.692 28.4873 157.381 28.5952 157.962 28.8094C158.542 29.0235 159.007 29.3381 159.356 29.7532L157.945 30.7289C157.673 30.4453 157.363 30.2396 157.015 30.1109C156.668 29.9832 156.254 29.9194 155.777 29.9194C155.138 29.9194 154.574 30.0424 154.082 30.2875C153.589 30.5335 153.205 30.8707 152.927 31.2998C152.65 31.7281 152.505 32.2089 152.492 32.7413C152.478 33.302 152.676 33.7462 153.087 34.0749C153.498 34.4035 154.093 34.5679 154.875 34.5679C155.368 34.5679 155.832 34.4815 156.268 34.3087L156.811 32.13ZM142.945 30.2405L140.904 33.0428H143.583L142.945 30.2405ZM146.168 35.8751H144.231L143.874 34.319H139.976L138.85 35.8751H136.782L142.374 28.6122H144.288L146.168 35.8751ZM130.269 32.5028C130.915 32.5028 131.419 32.3751 131.779 32.1197C132.14 31.8633 132.327 31.497 132.338 31.019C132.346 30.6735 132.217 30.4143 131.951 30.2405C131.683 30.0687 131.299 29.9814 130.797 29.9814H129.266L128.619 32.5028H130.269ZM134.303 30.8641C134.287 31.5412 134.06 32.1225 133.627 32.6071C133.192 33.0907 132.598 33.4335 131.844 33.6344L133.249 35.8751H131.204L129.938 33.842H128.288L127.772 35.8751H125.823L127.674 28.6122H131.081C132.117 28.6122 132.918 28.8094 133.482 29.2038C134.046 29.5982 134.32 30.1513 134.303 30.8641ZM117.001 34.5679C117.615 34.5679 118.155 34.4402 118.624 34.1838C119.092 33.9274 119.456 33.5856 119.713 33.1564C119.971 32.7282 120.106 32.254 120.119 31.7356C120.132 31.1815 119.943 30.7411 119.553 30.4124C119.162 30.0837 118.604 29.9194 117.879 29.9194C117.265 29.9194 116.724 30.0471 116.256 30.3035C115.787 30.5598 115.424 30.9017 115.166 31.3308C114.909 31.7591 114.774 32.2333 114.761 32.7517C114.748 33.3057 114.936 33.7462 115.327 34.0749C115.718 34.4035 116.275 34.5679 117.001 34.5679ZM116.798 36C115.962 36 115.239 35.8685 114.632 35.6056C114.024 35.3426 113.564 34.9726 113.248 34.4956C112.933 34.0176 112.783 33.4682 112.798 32.8456C112.818 32.0229 113.053 31.2801 113.503 30.6199C113.954 29.9598 114.576 29.4386 115.37 29.0582C116.165 28.6779 117.068 28.4873 118.081 28.4873C118.918 28.4873 119.641 28.6187 120.248 28.8817C120.855 29.1446 121.316 29.5146 121.632 29.9917C121.947 30.4697 122.097 31.0191 122.082 31.6417C122.062 32.4653 121.827 33.2071 121.376 33.8673C120.925 34.5284 120.303 35.0487 119.509 35.429C118.714 35.8094 117.811 36 116.798 36ZM105.592 35.8751H103.654L105.149 29.9814H102.471L102.827 28.6122H110.121L109.764 29.9814H107.098L105.592 35.8751ZM94.0569 36C93.3948 36 92.7628 35.9239 92.1609 35.7718C91.5591 35.6197 91.0768 35.4262 90.7161 35.1905L91.5365 33.8936C91.9132 34.1359 92.3399 34.3228 92.8146 34.4533C93.2902 34.5848 93.779 34.6505 94.2801 34.6505C94.8141 34.6505 95.2389 34.5745 95.5535 34.4223C95.8681 34.2702 96.0291 34.0627 96.0348 33.7997C96.0404 33.5856 95.9208 33.4213 95.6769 33.3067C95.432 33.1931 95.0402 33.07 94.5014 32.9386C93.9627 32.8005 93.5238 32.6672 93.1838 32.5394C92.8447 32.4117 92.5518 32.2192 92.3069 31.9638C92.062 31.7074 91.9452 31.3684 91.9547 30.9467C91.9669 30.4556 92.1355 30.0236 92.4585 29.6499C92.7825 29.2761 93.2365 28.9887 93.8186 28.7887C94.4016 28.5877 95.076 28.4873 95.8417 28.4873C96.4068 28.4873 96.9399 28.5417 97.4391 28.6488C97.9392 28.7558 98.3659 28.9098 98.72 29.1099L97.959 30.3964C97.6529 30.2105 97.3054 30.0696 96.9173 29.9767C96.5293 29.8837 96.1233 29.8367 95.7014 29.8367C95.1513 29.8367 94.7143 29.9194 94.3912 30.0856C94.0682 30.2518 93.9034 30.4659 93.8977 30.7289C93.8939 30.8876 93.958 31.0209 94.0908 31.128C94.2236 31.236 94.3931 31.3224 94.5994 31.3872C94.8047 31.4529 95.0939 31.5309 95.4659 31.621C95.9971 31.7459 96.4323 31.8717 96.7723 31.9995C97.1123 32.1281 97.4005 32.315 97.6378 32.5601C97.8742 32.8061 97.9882 33.1292 97.9788 33.5302C97.9665 34.0279 97.7961 34.4627 97.4692 34.8327C97.1405 35.2027 96.6837 35.4901 96.0969 35.6939C95.5102 35.8976 94.8301 36 94.0569 36ZM78.8958 34.7341C79.4543 34.7341 79.9949 34.5923 80.5205 34.3087L78.8986 32.669C78.4474 32.8559 78.114 33.0447 77.8983 33.2344C77.6817 33.425 77.5715 33.6448 77.5649 33.8936C77.5593 34.1425 77.6714 34.3444 77.9031 34.5003C78.1348 34.6562 78.4653 34.7341 78.8958 34.7341ZM80.3472 29.6189C80.0364 29.6189 79.7858 29.6912 79.5946 29.8367C79.4034 29.9814 79.3055 30.1757 79.2998 30.4171C79.297 30.5354 79.3281 30.6566 79.3921 30.7805C79.4571 30.9054 79.5673 31.0538 79.7227 31.2266C80.2379 31.0266 80.593 30.8444 80.788 30.6819C80.9829 30.5195 81.0837 30.3382 81.0884 30.1372C81.0922 29.9851 81.0272 29.8602 80.8935 29.7635C80.7607 29.6668 80.5789 29.6189 80.3472 29.6189ZM83.8876 32.5347C83.5768 33.1771 83.1888 33.7443 82.7225 34.2354L83.4572 34.983L82.1895 36L81.4416 35.2525C80.5855 35.7511 79.6464 36 78.6264 36C78.0443 36 77.5301 35.9258 77.0827 35.7765C76.6363 35.6281 76.2906 35.4168 76.0457 35.1435C75.8018 34.8703 75.684 34.5472 75.6935 34.1735C75.7048 33.6757 75.9129 33.2381 76.317 32.8606C76.721 32.484 77.3087 32.1366 78.082 31.8182C77.7411 31.4097 77.5762 30.9956 77.5866 30.573C77.596 30.1579 77.7307 29.7945 77.9888 29.4836C78.2478 29.1728 78.5925 28.9333 79.0229 28.768C79.4534 28.6018 79.9281 28.5182 80.4461 28.5182C81.1157 28.5182 81.6564 28.6507 82.0689 28.9127C82.4805 29.1756 82.6811 29.539 82.6698 30.003C82.6594 30.4453 82.4758 30.8275 82.1216 31.1486C81.7675 31.4708 81.2401 31.7731 80.5393 32.0568L81.7534 33.271C82.0406 32.932 82.2808 32.5517 82.4748 32.13L83.8876 32.5347ZM66.5301 32.13H68.2999L67.5332 35.1182C67.1046 35.4009 66.6092 35.6197 66.0469 35.7718C65.4856 35.9239 64.9054 36 64.3073 36C63.4709 36 62.7448 35.8685 62.1288 35.6056C61.5138 35.3426 61.0428 34.9726 60.7151 34.4956C60.3882 34.0176 60.2319 33.4682 60.247 32.8456C60.2668 32.0229 60.5041 31.2782 60.959 30.6143C61.4139 29.9504 62.044 29.4301 62.8503 29.0535C63.6565 28.676 64.5776 28.4873 65.6146 28.4873C66.4114 28.4873 67.0999 28.5952 67.6811 28.8094C68.2612 29.0235 68.7265 29.3381 69.075 29.7532L67.6641 30.7289C67.3919 30.4453 67.082 30.2396 66.7345 30.1109C66.3869 29.9832 65.9735 29.9194 65.4959 29.9194C64.8583 29.9194 64.2932 30.0424 63.8006 30.2875C63.3089 30.5335 62.9237 30.8707 62.6459 31.2998C62.369 31.7281 62.2239 32.2089 62.2107 32.7413C62.1966 33.302 62.3953 33.7462 62.806 34.0749C63.2166 34.4035 63.8119 34.5679 64.5936 34.5679C65.0881 34.5679 65.5525 34.4815 65.9866 34.3087L66.5301 32.13ZM53.442 33.1668L54.593 28.6122H56.5059L54.6551 35.8751H53.0653L50.0551 31.3308L48.8919 35.8751H46.979L48.8297 28.6122H50.4318L53.442 33.1668ZM41.7357 35.8751H39.787L41.6377 28.6122H43.5864L41.7357 35.8751ZM31.7491 33.7894L35.6654 28.6122H37.6734L32.2003 35.8751H30.2996L28.527 28.6122H30.5238L31.7491 33.7894ZM19.229 34.5679C19.8431 34.5679 20.3837 34.4402 20.8528 34.1838C21.3209 33.9274 21.6844 33.5856 21.9416 33.1564C22.1996 32.7282 22.3343 32.254 22.3465 31.7356C22.3607 31.1815 22.1714 30.7411 21.7814 30.4124C21.3906 30.0837 20.833 29.9194 20.1068 29.9194C19.4937 29.9194 18.9521 30.0471 18.484 30.3035C18.0149 30.5598 17.6523 30.9017 17.3943 31.3308C17.1371 31.7591 17.0015 32.2333 16.9893 32.7517C16.9761 33.3057 17.1644 33.7462 17.5553 34.0749C17.9452 34.4035 18.5038 34.5679 19.229 34.5679ZM19.0265 36C18.1901 36 17.4677 35.8685 16.8602 35.6056C16.2527 35.3426 15.7912 34.9726 15.4766 34.4956C15.1611 34.0176 15.0113 33.4682 15.0264 32.8456C15.0462 32.0229 15.2807 31.2801 15.7319 30.6199C16.1821 29.9598 16.8046 29.4386 17.5986 29.0582C18.3936 28.6779 19.2968 28.4873 20.3093 28.4873C21.1466 28.4873 21.869 28.6187 22.4765 28.8817C23.0831 29.1446 23.5446 29.5146 23.8601 29.9917C24.1747 30.4697 24.3254 31.0191 24.3103 31.6417C24.2896 32.4653 24.0551 33.2071 23.6039 33.8673C23.1537 34.5284 22.5312 35.0487 21.7372 35.429C20.9422 35.8094 20.039 36 19.0265 36ZM5.41192 33.1358L9.61073 28.6122H11.2731L9.4346 35.8751H7.61682L8.70183 31.559L5.42322 35.1079H4.56236L2.92823 31.5177L1.81778 35.8751H0L1.85075 28.6122H3.42932L5.41192 33.1358Z" fill="#00ADEF"/>
</svg>
