<svg width="66" height="66" viewBox="0 0 66 66" fill="none" xmlns="http://www.w3.org/2000/svg">
<g clip-path="url(#clip0_4770_4329)">
<path d="M65.5594 64.3026L63.9195 57.7426C63.5366 56.177 62.7629 54.7342 61.6705 53.5491C60.5782 52.3641 59.203 51.4755 57.6737 50.9667L45.647 46.9596C42.7141 45.7378 41.3721 41.0146 41.0823 39.2215C43.3171 37.3632 44.755 34.7192 45.1003 31.8333C45.051 31.3404 45.1674 30.845 45.431 30.4256C45.6411 30.373 45.8356 30.2712 45.9986 30.1286C46.1616 29.9861 46.2884 29.8068 46.3685 29.6056C47.1554 27.7002 47.6494 25.6866 47.8336 23.6333C47.834 23.5218 47.8203 23.4107 47.7926 23.3026C47.5968 22.5048 47.1278 21.8007 46.4669 21.3127V14.0666C46.4669 9.66321 45.1221 7.85651 43.7062 6.80961C43.4359 4.68862 41.1644 0.400024 32.8004 0.400024C25.3798 0.698812 19.4325 6.64612 19.1337 14.0667V21.3128C18.4729 21.8008 18.0038 22.5049 17.808 23.3028C17.7804 23.4108 17.7666 23.5219 17.767 23.6334C17.951 25.6877 18.445 27.7022 19.2321 29.6086C19.2903 29.7985 19.3963 29.9704 19.5398 30.1077C19.6834 30.2451 19.8598 30.3433 20.0521 30.3931C20.2052 30.4696 20.4923 30.866 20.4923 31.8336C20.8396 34.7277 22.2859 37.3777 24.5322 39.2355C24.2452 41.0258 22.9112 45.7463 20.0605 46.938L7.92716 50.9669C6.39906 51.4756 5.0249 52.3635 3.93313 53.5475C2.84136 54.7316 2.06763 56.1731 1.68427 57.7374L0.0442686 64.2974C-0.141384 65.029 0.301159 65.7726 1.03275 65.9583C1.14204 65.9861 1.25441 66.0002 1.36716 66.0003H64.2339C64.9886 66 65.6003 65.388 65.6002 64.6332C65.6001 64.5218 65.5864 64.4108 65.5594 64.3026Z" fill="#D5E2E8"/>
</g>
<defs>
<clipPath id="clip0_4770_4329">
<rect width="65.6" height="65.6" fill="white" transform="translate(0 0.400024)"/>
</clipPath>
</defs>
</svg>
