<svg width="0" height="0" class="hidden">
  <symbol fill="none" xmlns="http://www.w3.org/2000/svg" viewBox="0 0 6 9" id="ic_arr_hor">
    <path fill-rule="evenodd" clip-rule="evenodd" d="M2.47631 0.653822L6 4.49998L2.47631 8.34613H0L3.52393 4.49998L0 0.653822H2.47631Z" fill="currentColor"></path>
  </symbol>
  <symbol fill="none" xmlns="http://www.w3.org/2000/svg" viewBox="0 0 10 8" id="ic_arrow_hor">
    <path d="M9.86382 3.6712L6.88798 0.695361C6.70642 0.513798 6.41196 0.513798 6.2304 0.695361C6.0488 0.876962 6.0488 1.17135 6.2304 1.35295L8.41247 3.53502H0.464974C0.208197 3.53502 0 3.74321 0 3.99999C0 4.25673 0.208197 4.46496 0.464974 4.46496H8.41247L6.23047 6.64703C6.04887 6.82863 6.04887 7.12302 6.23047 7.30462C6.32123 7.39534 6.44027 7.4408 6.55926 7.4408C6.67826 7.4408 6.79726 7.39534 6.88806 7.30462L9.86382 4.32878C10.0454 4.14718 10.0454 3.8528 9.86382 3.6712Z" fill="currentColor"></path>
  </symbol>
  <symbol fill="none" xmlns="http://www.w3.org/2000/svg" viewBox="0 0 18 18" id="ic_close">
    <rect x="5" y="3.30164" width="15" height="1.4" rx="0.7" transform="rotate(45 5 3.30164)" fill="currentColor"></rect>
    <rect x="4" y="13.9082" width="15" height="1.4" rx="0.7" transform="rotate(-45 4 13.9082)" fill="currentColor"></rect>
  </symbol>
  <symbol fill="none" xmlns="http://www.w3.org/2000/svg" viewBox="0 0 18 18" id="ic_menu">
    <rect x="10" y="12.7998" width="7" height="1.4" rx="0.7" fill="currentColor"></rect>
    <rect x="2" y="8.3999" width="15" height="1.4" rx="0.7" fill="currentColor"></rect>
    <rect x="6" y="4" width="11" height="1.4" rx="0.7" fill="currentColor"></rect>
  </symbol>
  <symbol fill="none" xmlns="http://www.w3.org/2000/svg" viewBox="0 0 15 15" id="ic_phone">
    <path d="M4.44451 0.749939C4.86731 0.747012 5.27716 0.897046 5.59783 1.17279C5.87967 1.41517 6.07591 1.74031 6.16033 2.09955L6.18963 2.25482V2.2597L6.25799 2.67963C6.33722 3.09681 6.45122 3.50687 6.59978 3.90521L6.63982 4.02435C6.72247 4.30355 6.73398 4.59961 6.67303 4.88568C6.60324 5.2129 6.44149 5.51399 6.20623 5.75189L5.68572 6.27142C6.45376 7.50504 7.49422 8.54618 8.72771 9.31439L9.24725 8.79681L9.2492 8.79486L9.341 8.7099C9.56236 8.52025 9.82806 8.38816 10.1144 8.32709C10.4415 8.25734 10.7818 8.28274 11.0949 8.40033C11.4938 8.54919 11.9036 8.66379 12.3215 8.7431L12.7414 8.81049L12.7453 8.81146L12.9025 8.84076C13.2655 8.92633 13.5932 9.12636 13.8361 9.41302C14.1109 9.73738 14.2577 10.1504 14.2502 10.5751V12.4482L14.2414 12.6298C14.2232 12.811 14.1769 12.9887 14.1037 13.1562C14.0061 13.3794 13.8633 13.5803 13.6838 13.7451C13.5043 13.9097 13.2924 14.0352 13.0617 14.1132C12.8309 14.1913 12.5856 14.2201 12.3429 14.1982L12.3342 14.1972L11.9601 14.1513C10.0939 13.8931 8.30515 13.2279 6.72186 12.2011C5.15184 11.2025 3.82043 9.87018 2.82244 8.29974C1.72502 6.60432 1.04157 4.67334 0.8283 2.66498L0.827324 2.65717C0.805518 2.41532 0.834776 2.17148 0.912285 1.94135C0.989836 1.71116 1.11473 1.49965 1.2785 1.32025C1.44225 1.14091 1.6413 0.997481 1.86346 0.899353C2.0856 0.80123 2.32569 0.75021 2.56853 0.749939H4.44451ZM2.49236 1.75385C2.41491 1.76195 2.33928 1.78281 2.26775 1.81439C2.17261 1.85642 2.08693 1.9173 2.01678 1.99408C1.94658 2.07098 1.89279 2.16201 1.85955 2.26068C1.82637 2.35926 1.81408 2.46372 1.82342 2.56732C2.00883 4.30264 2.57473 5.97423 3.47869 7.46381L3.66424 7.7597L3.66619 7.76263L3.84197 8.03217C4.68053 9.27496 5.75055 10.345 6.99334 11.1835L7.26287 11.3593L7.26678 11.3613L7.56072 11.5468C9.0435 12.4478 10.7072 13.0133 12.4347 13.2021C12.538 13.2112 12.6422 13.1991 12.7404 13.166C12.8393 13.1325 12.931 13.0784 13.008 13.0078C13.0848 12.9372 13.1459 12.8513 13.1877 12.7558C13.2295 12.6601 13.2506 12.5565 13.2502 12.4521V10.5624C13.2547 10.3787 13.1921 10.1998 13.0734 10.0595C12.9545 9.91915 12.7878 9.8274 12.6056 9.8017C12.1291 9.73859 11.6589 9.63527 11.2004 9.4931L10.7443 9.33685C10.6102 9.28644 10.4636 9.27577 10.3234 9.3056C10.1832 9.33551 10.0543 9.40497 9.95232 9.5058L9.16033 10.2978L9.09686 10.3515C8.96278 10.447 8.78948 10.4697 8.63494 10.413L8.55975 10.3788L8.25506 10.1982C6.74854 9.27302 5.49806 7.98146 4.62225 6.44135C4.51099 6.24568 4.54414 5.99894 4.7033 5.83978L5.49725 5.04681C5.59702 4.94519 5.66575 4.81699 5.69549 4.67767C5.7254 4.53744 5.71469 4.391 5.66424 4.25677L5.66326 4.2558L6.13201 4.08099L6.20525 4.05267L5.66326 4.2558C5.43913 3.6551 5.28361 3.03103 5.19939 2.39545L5.16814 2.26361C5.12561 2.13556 5.04905 2.02066 4.94549 1.93158C4.80754 1.81294 4.63133 1.74819 4.44939 1.74994H2.56951L2.49236 1.75385Z" fill="currentColor"></path>
  </symbol>
  <symbol fill="none" xmlns="http://www.w3.org/2000/svg" viewBox="0 0 14 14" id="ic_plus">
    <path fill-rule="evenodd" clip-rule="evenodd" d="M7.77778 0.777778C7.77778 0.348227 7.42957 0 7 0C6.57043 0 6.22222 0.348227 6.22222 0.777778V6.22222H0.777778C0.348227 6.22222 0 6.57043 0 7C0 7.42957 0.348227 7.77778 0.777778 7.77778H6.22222V13.2222C6.22222 13.6518 6.57043 14 7 14C7.42957 14 7.77778 13.6518 7.77778 13.2222V7.77778H13.2222C13.6518 7.77778 14 7.42957 14 7C14 6.57043 13.6518 6.22222 13.2222 6.22222H7.77778V0.777778Z" fill="currentColor"></path>
  </symbol>
  <symbol fill="none" xmlns="http://www.w3.org/2000/svg" viewBox="0 0 24 24" id="ic_video_play">
    <path d="M1.58887 20.0043V3.99696C1.58887 2.67701 1.58887 2.0163 1.86663 1.62576C2.10906 1.2849 2.48273 1.06111 2.89757 1.0076C3.37271 0.946323 3.95546 1.25712 5.11929 1.87783L20.1261 9.88148L20.1316 9.8839C21.4178 10.5699 22.0612 10.913 22.2722 11.3703C22.4563 11.7693 22.4563 12.2299 22.2722 12.6288C22.0609 13.0868 21.4159 13.4314 20.1261 14.1193L5.11929 22.1229C3.95462 22.7441 3.37288 23.0537 2.89757 22.9924C2.48273 22.9389 2.10906 22.7151 1.86663 22.3743C1.58887 21.9837 1.58887 21.3242 1.58887 20.0043Z" stroke="currentColor" stroke-width="2" stroke-linecap="round" stroke-linejoin="round"></path>
  </symbol>
</svg>